<svg width="60" height="26" viewBox="0 0 60 26" fill="none" xmlns="http://www.w3.org/2000/svg">
<path fill-rule="evenodd" clip-rule="evenodd" d="M44.4922 16.2376V16.2724C44.5732 16.3418 44.6541 16.4113 44.7349 16.4807C44.7465 16.4981 44.758 16.5154 44.7696 16.5328H44.8043C44.8679 16.6022 44.9314 16.6717 44.995 16.7411H45.0296C45.0353 16.7527 45.0412 16.7643 45.047 16.7759H45.0643C45.1106 16.828 45.1568 16.8801 45.203 16.9321H45.2376C45.3013 17.0016 45.3648 17.071 45.4283 17.1405H45.463C45.5207 17.2042 45.5785 17.2678 45.6364 17.3315H45.671C45.7173 17.3836 45.7635 17.4357 45.8097 17.4878C45.827 17.4994 45.8444 17.5108 45.8617 17.5225V17.5398H45.8964C45.9541 17.6036 46.0119 17.6672 46.0697 17.7308H46.1044C46.1507 17.7829 46.1969 17.835 46.2431 17.8871C46.2604 17.8987 46.2778 17.9102 46.2951 17.9218V17.9392H46.3298C46.3934 18.0086 46.4569 18.0781 46.5205 18.1475H46.5551C46.5782 18.1765 46.6014 18.2054 46.6245 18.2344C46.6534 18.2575 46.6822 18.2807 46.7111 18.3038C46.7169 18.3154 46.7228 18.3269 46.7285 18.3385H46.7631C46.7689 18.3502 46.7748 18.3616 46.7805 18.3733H46.7978C46.8498 18.4311 46.9018 18.489 46.9538 18.5469H46.9885C47.0462 18.6106 47.104 18.6743 47.1619 18.7379H47.1965C47.2601 18.8073 47.3237 18.8768 47.3872 18.9462H47.4219C47.4796 19.01 47.5374 19.0736 47.5952 19.1372H47.6299C47.6762 19.1893 47.7224 19.2414 47.7686 19.2935C47.7859 19.3051 47.8033 19.3166 47.8206 19.3282V19.3456H47.8553C47.913 19.4093 47.9708 19.473 48.0286 19.5366H48.0633C48.1096 19.5887 48.1558 19.6408 48.202 19.6928C48.2193 19.7045 48.2366 19.7159 48.254 19.7276V19.7449H48.2886C48.3464 19.8087 48.4042 19.8723 48.462 19.9359H48.4967C48.543 19.988 48.5892 20.0401 48.6353 20.0922C48.6527 20.1038 48.67 20.1153 48.6874 20.1269V20.1443H48.722C48.7798 20.208 48.8375 20.2717 48.8954 20.3353H48.93C48.9763 20.3874 49.0226 20.4395 49.0687 20.4915C49.0861 20.5032 49.1034 20.5146 49.1207 20.5263V20.5436H49.1554C49.2131 20.6074 49.2709 20.671 49.3288 20.7346H49.3634C49.427 20.8041 49.4906 20.8735 49.5541 20.943H49.5888C49.6465 21.0067 49.7043 21.0704 49.7621 21.134H49.7968C49.8431 21.1861 49.8893 21.2381 49.9355 21.2902C49.9528 21.3019 49.9702 21.3133 49.9875 21.325V21.3423H50.0222C50.0799 21.406 50.1377 21.4697 50.1955 21.5333H50.2302C50.2938 21.6028 50.3574 21.6722 50.4209 21.7417H50.4556C50.5133 21.8054 50.5711 21.8691 50.6289 21.9327H50.6636C50.7099 21.9848 50.7561 22.0368 50.8023 22.0889C50.8312 22.112 50.86 22.1353 50.8889 22.1584V22.1931C50.9179 22.2162 50.9467 22.2395 50.9756 22.2626V22.2973C50.9872 22.303 50.9987 22.3089 51.0103 22.3146V22.3494C51.0276 22.361 51.0449 22.3725 51.0623 22.3841C51.068 22.4072 51.0739 22.4305 51.0796 22.4536C51.0912 22.4593 51.1027 22.4652 51.1143 22.4709C51.1259 22.5056 51.1373 22.5404 51.149 22.5751C51.1606 22.5808 51.172 22.5867 51.1836 22.5925V22.6445H51.201V22.6793H51.2183C51.224 22.7024 51.2299 22.7256 51.2356 22.7487H51.253C51.2587 22.7834 51.2646 22.8182 51.2703 22.8529H51.2876V22.8876H51.305V22.9571H51.3223V23.0092H51.3396V23.0786H51.357V23.1654C51.4187 23.3705 51.4192 23.7245 51.357 23.9294V24.0162H51.3396V24.0857H51.3223V24.1551H51.305V24.2072H51.2876V24.2593H51.2703V24.3114H51.253C51.2472 24.3345 51.2414 24.3577 51.2356 24.3808H51.2183V24.4329H51.201C51.1894 24.4676 51.1779 24.5024 51.1663 24.5371H51.149C51.1432 24.5602 51.1373 24.5835 51.1316 24.6066C51.12 24.6123 51.1086 24.6182 51.097 24.6239C51.0912 24.647 51.0853 24.6703 51.0796 24.6934H51.0623C51.0566 24.7107 51.0507 24.7281 51.0449 24.7455C51.0333 24.7512 51.0219 24.7571 51.0103 24.7628V24.7975C50.9987 24.8033 50.9872 24.8092 50.9756 24.8149C50.9699 24.8323 50.964 24.8496 50.9583 24.867C50.9352 24.8844 50.912 24.9017 50.8889 24.9191V24.9538C50.86 24.9769 50.8312 25.0002 50.8023 25.0233C50.7965 25.0349 50.7906 25.0464 50.7849 25.058H50.7502C50.7272 25.087 50.704 25.1158 50.6809 25.1448H50.6462C50.6346 25.1622 50.6232 25.1795 50.6116 25.1969H50.5769C50.5712 25.2085 50.5653 25.22 50.5596 25.2316C50.5422 25.2373 50.5249 25.2432 50.5076 25.249V25.2663H50.4729C50.4672 25.278 50.4613 25.2894 50.4556 25.3011C50.4209 25.3127 50.3862 25.3242 50.3515 25.3358C50.3458 25.3474 50.3399 25.3589 50.3342 25.3705H50.2995V25.3879H50.2649V25.4052H50.2129V25.4226C50.1898 25.4283 50.1666 25.4342 50.1435 25.44V25.4573H50.0915V25.4747H50.0568V25.4921C50.0222 25.4978 49.9875 25.5037 49.9528 25.5094V25.5268C49.8141 25.5558 49.6755 25.5847 49.5368 25.6136H49.3114C49.072 25.6136 48.8739 25.5761 48.7047 25.5094C48.67 25.5037 48.6354 25.4978 48.6007 25.4921V25.4747H48.566V25.4573H48.514V25.44C48.4793 25.4283 48.4447 25.4169 48.41 25.4052V25.3879C48.3869 25.3822 48.3637 25.3762 48.3407 25.3705C48.3349 25.3589 48.329 25.3474 48.3233 25.3358C48.3003 25.3301 48.277 25.3242 48.254 25.3184C48.2483 25.3068 48.2424 25.2953 48.2366 25.2837H48.202C48.1963 25.2721 48.1904 25.2606 48.1846 25.249H48.15C48.1383 25.2316 48.1269 25.2143 48.1153 25.1969H48.0806C48.0576 25.1679 48.0343 25.1391 48.0113 25.1101H47.9766C47.9189 25.0464 47.8611 24.9827 47.8033 24.9191H47.7686C47.705 24.8496 47.6414 24.7802 47.5779 24.7107H47.5432C47.5202 24.6817 47.4969 24.6529 47.4739 24.6239C47.4158 24.5658 47.3423 24.5251 47.2832 24.4676C47.2312 24.4098 47.1792 24.352 47.1272 24.294H47.0925C47.0289 24.2246 46.9653 24.1551 46.9018 24.0857H46.8672C46.8094 24.0219 46.7516 23.9583 46.6938 23.8947H46.6591C46.5955 23.8252 46.532 23.7558 46.4684 23.6863H46.4338C46.3875 23.6342 46.3413 23.5821 46.2951 23.5301C46.2778 23.5184 46.2604 23.507 46.2431 23.4953V23.478H46.2084C46.1448 23.4085 46.0812 23.3391 46.0177 23.2696H45.9831C45.9368 23.2175 45.8905 23.1654 45.8444 23.1133C45.827 23.1017 45.8097 23.0902 45.7924 23.0786V23.0613H45.7577C45.6941 22.9918 45.6305 22.9223 45.567 22.8529H45.5323C45.4861 22.8008 45.4398 22.7487 45.3937 22.6966C45.3763 22.685 45.359 22.6735 45.3417 22.6619V22.6445H45.307C45.2493 22.5808 45.1915 22.5172 45.1336 22.4536H45.099C45.0353 22.3841 44.9718 22.3146 44.9083 22.2452H44.8736C44.8273 22.1931 44.7811 22.141 44.7349 22.0889C44.7176 22.0773 44.7003 22.0658 44.6829 22.0542V22.0368H44.6482C44.5846 21.9674 44.5211 21.8979 44.4576 21.8285H44.4229C44.3593 21.759 44.2957 21.6896 44.2322 21.6201H44.1975C44.1512 21.568 44.105 21.516 44.0588 21.4639C44.0415 21.4522 44.0242 21.4408 44.0068 21.4291V21.4118H43.9722C43.9086 21.3423 43.845 21.2729 43.7815 21.2034H43.7468C43.6832 21.134 43.6196 21.0645 43.5561 20.9951H43.5215C43.4637 20.9313 43.4059 20.8677 43.3481 20.8041H43.3134C43.2498 20.7346 43.1863 20.6652 43.1227 20.5957H43.0881C43.0418 20.5436 42.9956 20.4915 42.9494 20.4394C42.9321 20.4278 42.9147 20.4164 42.8974 20.4047V20.3874H42.8627C42.7991 20.3179 42.7355 20.2485 42.672 20.179H42.6374C42.5737 20.1096 42.5102 20.0401 42.4467 19.9707H42.412C42.3484 19.9012 42.2848 19.8317 42.2213 19.7623H42.1866C42.123 19.6928 42.0595 19.6234 41.996 19.5539H41.9613C41.915 19.5019 41.8688 19.4498 41.8226 19.3977C41.8053 19.386 41.7879 19.3746 41.7706 19.3629V19.3456H41.7359C41.6782 19.2819 41.6204 19.2182 41.5626 19.1546H41.5279C41.4759 19.0968 41.4239 19.0389 41.3719 18.981C41.3256 18.9462 41.2794 18.9115 41.2332 18.8768C41.1838 18.8275 41.1547 18.7592 41.0772 18.7379V23.9641H41.0599V24.103H41.0425V24.1898H41.0252V24.2593H41.0078V24.3287H40.9905V24.3982H40.9732V24.4503H40.9558C40.9501 24.4793 40.9442 24.5081 40.9385 24.5371H40.9212V24.5718H40.9038V24.6239H40.8865C40.8808 24.647 40.8749 24.6703 40.8692 24.6934H40.8518C40.8461 24.7165 40.8402 24.7397 40.8345 24.7628C40.8229 24.7685 40.8114 24.7745 40.7998 24.7802C40.7941 24.8033 40.7882 24.8265 40.7825 24.8496C40.7709 24.8554 40.7594 24.8613 40.7478 24.867V24.9017H40.7305C40.7248 24.9191 40.7189 24.9364 40.7132 24.9538C40.7015 24.9595 40.6901 24.9654 40.6785 24.9712V25.0059C40.6554 25.0233 40.6322 25.0406 40.6091 25.058V25.0927C40.5687 25.1274 40.5283 25.1622 40.4878 25.1969C40.4415 25.249 40.3953 25.3011 40.3491 25.3532H40.3144C40.2971 25.3762 40.2798 25.3995 40.2624 25.4226H40.2278C40.222 25.4342 40.2161 25.4457 40.2104 25.4573H40.1758C40.17 25.469 40.1641 25.4804 40.1584 25.4921C40.1411 25.4978 40.1237 25.5037 40.1064 25.5094V25.5268C40.0717 25.5384 40.0371 25.5499 40.0024 25.5615C39.9967 25.5731 39.9908 25.5846 39.9851 25.5962H39.9504V25.6136H39.9157V25.631H39.8637V25.6483C39.8407 25.6541 39.8174 25.66 39.7944 25.6657V25.6831L39.4303 25.7872H39.3263C39.1252 25.8452 38.8021 25.8275 38.6156 25.7699H38.5289V25.7525H38.4596V25.7351H38.4076V25.7178H38.3556V25.7004H38.3036V25.6831H38.2515V25.6657C38.2285 25.66 38.2053 25.6541 38.1822 25.6483V25.631L38.0262 25.5789C38.0205 25.5672 38.0146 25.5558 38.0089 25.5441C37.9858 25.5384 37.9626 25.5325 37.9395 25.5268C37.9338 25.5152 37.9279 25.5037 37.9222 25.4921H37.8875C37.8818 25.4804 37.8759 25.469 37.8702 25.4573H37.8355C37.8298 25.4457 37.8239 25.4342 37.8182 25.4226H37.7835C37.7719 25.4052 37.7604 25.3879 37.7488 25.3705H37.7142C37.6564 25.3068 37.5986 25.2431 37.5408 25.1795C37.5004 25.1448 37.46 25.1101 37.4195 25.0754V25.0406C37.4021 25.029 37.3848 25.0175 37.3675 25.0059V24.9712C37.3501 24.9595 37.3328 24.9481 37.3154 24.9364V24.9017C37.3038 24.896 37.2924 24.8901 37.2808 24.8844C37.2751 24.8613 37.2692 24.838 37.2634 24.8149C37.2518 24.8092 37.2404 24.8033 37.2288 24.7975C37.2172 24.7628 37.2057 24.7281 37.1941 24.6934H37.1768C37.1651 24.6586 37.1537 24.6239 37.1421 24.5892H37.1248V24.5371H37.1074V24.5024H37.0901V24.4503H37.0728V24.3982H37.0554V24.3461H37.0381V24.2767H37.0207V24.2072H37.0034V24.1204H36.9861C36.9804 23.9699 36.9746 23.8194 36.9687 23.669V3.11126C36.9687 2.69406 36.9188 2.12157 37.0207 1.79168V1.70486C37.169 1.26256 37.3714 0.892277 37.7142 0.645724L37.7662 0.576272H37.8008C37.8065 0.564691 37.8124 0.553127 37.8182 0.541546L37.8702 0.524183V0.50682H37.9048C37.9106 0.495239 37.9165 0.483676 37.9222 0.472094L37.9742 0.454732V0.437369L38.0435 0.420006V0.402643H38.0782V0.38528L38.1822 0.350554V0.333191H38.2342V0.315828H38.2689V0.298465H38.3209V0.281102H38.3729V0.263739H38.4249V0.246377H38.4769V0.229014H38.5636C38.8184 0.148606 39.2273 0.145672 39.4823 0.229014H39.5517L39.8637 0.333191V0.350554L39.9677 0.38528V0.402643L40.0371 0.420006C40.0428 0.431587 40.0487 0.44315 40.0544 0.454732L40.1238 0.472094V0.489457L40.1758 0.50682C40.1815 0.518401 40.1874 0.529965 40.1931 0.541546H40.2278C40.2394 0.558909 40.2508 0.576272 40.2624 0.593635H40.2971L40.3491 0.663087H40.3838C40.4127 0.697812 40.4415 0.732538 40.4705 0.767264C40.5108 0.80199 40.5513 0.836716 40.5918 0.871442V0.906167C40.6149 0.92353 40.6381 0.940893 40.6611 0.958256V0.992982L40.7132 1.02771V1.06243C40.7248 1.06822 40.7362 1.07401 40.7478 1.0798C40.7535 1.10294 40.7594 1.1261 40.7652 1.14925C40.7768 1.15503 40.7882 1.16083 40.7998 1.16661V1.20134H40.8172V1.23606H40.8345V1.27079H40.8518V1.30551H40.8692V1.34024H40.8865V1.37497H40.9038C40.9096 1.39811 40.9155 1.42127 40.9212 1.44442H40.9385C40.9442 1.47914 40.9501 1.51387 40.9558 1.5486H40.9732V1.60068H40.9905V1.65277H41.0078V1.72222H41.0252V1.79168H41.0425V1.89585H41.0599V2.01739H41.0772V13.6506H41.0945C41.1328 13.5945 41.1945 13.5855 41.2505 13.5464C41.2622 13.529 41.2736 13.5116 41.2852 13.4943H41.3199C41.3256 13.4827 41.3315 13.4711 41.3372 13.4596H41.3719V13.4422L41.4239 13.4248C41.4296 13.4133 41.4355 13.4017 41.4412 13.3901H41.4759C41.4875 13.3727 41.499 13.3554 41.5106 13.338H41.5452C41.551 13.3264 41.5569 13.3149 41.5626 13.3033H41.5972V13.2859L41.6493 13.2686C41.655 13.257 41.6609 13.2454 41.6666 13.2338H41.7013C41.7129 13.2165 41.7243 13.1991 41.7359 13.1818H41.7706C41.7763 13.1702 41.7822 13.1586 41.7879 13.147L41.8399 13.1297V13.1123H41.8746C41.8803 13.1007 41.8862 13.0892 41.8919 13.0776H41.9266C41.9323 13.066 41.9382 13.0544 41.944 13.0428H41.9786C41.9902 13.0255 42.0017 13.0081 42.0133 12.9908H42.048C42.0537 12.9792 42.0596 12.9676 42.0653 12.956H42.1V12.9387L42.152 12.9213C42.1577 12.9097 42.1636 12.8982 42.1693 12.8866H42.204C42.2156 12.8692 42.227 12.8519 42.2387 12.8345H42.2733C42.279 12.8229 42.2849 12.8113 42.2907 12.7998H42.3253V12.7824L42.3773 12.765C42.3831 12.7535 42.3889 12.7419 42.3947 12.7303H42.4293C42.441 12.713 42.4524 12.6956 42.464 12.6782H42.4987C42.5044 12.6666 42.5103 12.6551 42.516 12.6435H42.5507V12.6261L42.6027 12.6088C42.6084 12.5972 42.6143 12.5856 42.62 12.574H42.6547C42.6663 12.5567 42.6777 12.5393 42.6894 12.522H42.724C42.7298 12.5104 42.7357 12.4988 42.7414 12.4872L42.7934 12.4699V12.4525H42.828C42.8338 12.4409 42.8397 12.4294 42.8454 12.4178H42.8801C42.8858 12.4062 42.8917 12.3946 42.8974 12.3831H42.9321C42.9437 12.3657 42.9551 12.3483 42.9667 12.331H43.0014C43.0071 12.3194 43.013 12.3078 43.0187 12.2962H43.0534V12.2789L43.1054 12.2615C43.1111 12.2499 43.117 12.2384 43.1227 12.2268H43.1574C43.169 12.2094 43.1805 12.1921 43.1921 12.1747H43.2268C43.2325 12.1631 43.2384 12.1516 43.2441 12.14H43.2788V12.1226L43.3308 12.1053C43.3365 12.0937 43.3424 12.0821 43.3481 12.0705H43.3828C43.3944 12.0532 43.4058 12.0358 43.4174 12.0184H43.4521C43.4578 12.0069 43.4637 11.9953 43.4695 11.9837H43.5041V11.9663L43.5561 11.949C43.5618 11.9374 43.5677 11.9258 43.5735 11.9143H43.6081C43.6197 11.8969 43.6312 11.8795 43.6428 11.8622H43.6775C43.6832 11.8506 43.6891 11.839 43.6948 11.8274L43.7468 11.8101V11.7927H43.7815C43.7872 11.7811 43.7931 11.7696 43.7988 11.758H43.8335C43.8392 11.7464 43.8451 11.7348 43.8508 11.7233H43.8855C43.8971 11.7059 43.9086 11.6885 43.9202 11.6712H43.9548C43.9606 11.6596 43.9664 11.648 43.9722 11.6365H44.0068V11.6191L44.0588 11.6017C44.0646 11.5901 44.0705 11.5786 44.0762 11.567H44.1109C44.1225 11.5496 44.1339 11.5323 44.1455 11.5149H44.1802C44.1859 11.5033 44.1918 11.4918 44.1975 11.4802H44.2322V11.4628L44.2842 11.4455C44.2899 11.4339 44.2958 11.4223 44.3015 11.4107H44.3362C44.3478 11.3934 44.3593 11.376 44.3709 11.3586H44.4056C44.4113 11.3471 44.4172 11.3355 44.4229 11.3239H44.4576V11.3066L44.5096 11.2892C44.5153 11.2776 44.5212 11.266 44.5269 11.2545H44.5616C44.5732 11.2371 44.5846 11.2197 44.5962 11.2024H44.6309C44.6366 11.1908 44.6425 11.1792 44.6482 11.1677L44.7003 11.1503V11.1329H44.7349C44.7406 11.1213 44.7465 11.1098 44.7523 11.0982H44.7869C44.7926 11.0866 44.7985 11.0751 44.8043 11.0635H44.8389C44.8506 11.0461 44.862 11.0287 44.8736 11.0114H44.9083C44.914 10.9998 44.9199 10.9882 44.9256 10.9767H44.9603V10.9593L45.0123 10.9419C45.018 10.9304 45.0239 10.9188 45.0296 10.9072H45.0643C45.0759 10.8898 45.0873 10.8725 45.099 10.8551H45.1336C45.1394 10.8435 45.1452 10.832 45.151 10.8204H45.1856V10.803L45.2376 10.7857C45.2434 10.7741 45.2493 10.7625 45.255 10.7509H45.2896C45.3013 10.7336 45.3127 10.7162 45.3243 10.6989H45.359C45.3647 10.6873 45.3706 10.6757 45.3763 10.6641H45.411V10.6468L45.463 10.6294C45.4687 10.6178 45.4746 10.6063 45.4803 10.5947H45.515C45.5266 10.5773 45.5381 10.56 45.5497 10.5426H45.5843C45.5901 10.531 45.596 10.5194 45.6017 10.5079L45.6537 10.4905V10.4731H45.6884C45.6941 10.4616 45.7 10.45 45.7057 10.4384H45.7404C45.7461 10.4268 45.752 10.4153 45.7577 10.4037H45.7924C45.804 10.3863 45.8154 10.369 45.827 10.3516H45.8617C45.8674 10.34 45.8733 10.3285 45.8791 10.3169H45.9137V10.2995L45.9657 10.2821C45.9714 10.2706 45.9773 10.259 45.9831 10.2474H46.0177C46.0293 10.2301 46.0408 10.2127 46.0524 10.1953H46.0871C46.0928 10.1837 46.0987 10.1722 46.1044 10.1606H46.1391V10.1432L46.1911 10.1259C46.1968 10.1143 46.2027 10.1027 46.2084 10.0912H46.2431C46.2547 10.0738 46.2661 10.0564 46.2778 10.0391H46.3124C46.3181 10.0275 46.324 10.0159 46.3298 10.0043H46.3644V9.98697L46.4164 9.96961C46.4222 9.95803 46.4281 9.94647 46.4338 9.93489H46.4684C46.4801 9.91752 46.4915 9.90016 46.5031 9.8828H46.5378C46.5435 9.87122 46.5494 9.85965 46.5551 9.84807L46.6071 9.83071V9.81335H46.6418C46.6475 9.80176 46.6534 9.7902 46.6591 9.77862H46.6938C46.6995 9.76704 46.7054 9.75548 46.7111 9.74389H46.7458C46.7574 9.72653 46.7689 9.70917 46.7805 9.6918H46.8152C46.8209 9.68022 46.8268 9.66866 46.8325 9.65708H46.8672V9.63972L46.9192 9.62235C46.9249 9.61077 46.9308 9.59921 46.9365 9.58763H46.9712C46.9828 9.57026 46.9942 9.5529 47.0058 9.53554H47.0405C47.0462 9.52396 47.0521 9.51239 47.0578 9.50081H47.0925V9.48345L47.1445 9.46609C47.1502 9.45451 47.1561 9.44294 47.1619 9.43136H47.1965C47.2081 9.414 47.2196 9.39664 47.2312 9.37927H47.2659C47.2716 9.36769 47.2775 9.35613 47.2832 9.34455H47.3179V9.32718L47.3699 9.30982C47.3756 9.29824 47.3815 9.28668 47.3872 9.27509H47.4219C47.4335 9.25773 47.4449 9.24037 47.4566 9.22301H47.4912C47.4969 9.21142 47.5028 9.19986 47.5086 9.18828L47.5606 9.17092V9.15355H47.5952C47.601 9.14197 47.6068 9.13041 47.6126 9.11883H47.6472C47.653 9.10725 47.6589 9.09568 47.6646 9.0841H47.6992C47.7109 9.06674 47.7223 9.04938 47.7339 9.03201H47.7686V9.01465H47.8033C47.809 9.00307 47.8149 8.99151 47.8206 8.97993L47.9246 8.9452C47.9303 8.93362 47.9362 8.92205 47.9419 8.91047H47.9766V8.89311H48.0286V8.87575L48.098 8.85838V8.84102C48.1269 8.83524 48.1557 8.82944 48.1846 8.82366V8.8063H48.2366V8.78893H48.2886V8.77157H48.3407V8.75421H48.41V8.73684L48.5833 8.71948V8.70212H48.722C48.863 8.66246 49.118 8.68319 49.2421 8.71948H49.3461V8.73684H49.4154V8.75421H49.4848C49.7444 8.84605 49.9896 8.97469 50.2129 9.13619C50.2591 9.18828 50.3054 9.24037 50.3515 9.29246C50.3978 9.33297 50.444 9.37348 50.4902 9.414V9.44872L50.5422 9.48345V9.51818C50.5538 9.52396 50.5653 9.52976 50.5769 9.53554V9.57026L50.6289 9.60499V9.63972C50.6405 9.6455 50.652 9.6513 50.6636 9.65708C50.6693 9.68022 50.6752 9.70339 50.6809 9.72653C50.6925 9.73231 50.704 9.73811 50.7156 9.74389C50.7213 9.76704 50.7272 9.7902 50.7329 9.81335H50.7502V9.84807H50.7676V9.8828H50.7849C50.7965 9.91752 50.808 9.95225 50.8196 9.98697H50.8369V10.0391H50.8543V10.0912H50.8716V10.1432H50.8889V10.1953H50.9063C50.912 10.2416 50.9179 10.2879 50.9236 10.3342H50.9409C50.9467 10.4153 50.9524 10.4963 50.9583 10.5773H50.9756C51.0006 10.6667 50.9761 10.8443 50.9583 10.9072C50.9525 10.9882 50.9468 11.0693 50.9409 11.1503H50.9236V11.2197H50.9063V11.2892H50.8889V11.3586H50.8716V11.4107H50.8543V11.4628H50.8369V11.4975H50.8196V11.5496H50.8023C50.7906 11.5844 50.7792 11.6191 50.7676 11.6538H50.7502V11.6885H50.7329V11.7233H50.7156V11.758H50.6982V11.7927H50.6809V11.8274H50.6636C50.6579 11.8448 50.652 11.8622 50.6462 11.8795C50.6346 11.8853 50.6232 11.8911 50.6116 11.8969V11.9316C50.6 11.9374 50.5885 11.9432 50.5769 11.949V11.9837L50.5249 12.0184V12.0532C50.4959 12.0763 50.4672 12.0995 50.4382 12.1226V12.1573L50.3862 12.1921L50.2822 12.3136H50.2475C50.2245 12.3425 50.2012 12.3715 50.1782 12.4004H50.1435C50.1319 12.4178 50.1205 12.4351 50.1088 12.4525H50.0742C50.0685 12.4641 50.0626 12.4757 50.0568 12.4872L50.0048 12.5046V12.522H49.9702C49.9644 12.5335 49.9585 12.5451 49.9528 12.5567H49.9182C49.9124 12.5683 49.9065 12.5798 49.9008 12.5914H49.8662C49.8604 12.603 49.8545 12.6146 49.8488 12.6261H49.8141C49.8084 12.6377 49.8025 12.6493 49.7968 12.6609H49.7621C49.7505 12.6782 49.7391 12.6956 49.7275 12.713H49.6928C49.6871 12.7245 49.6812 12.7361 49.6755 12.7477L49.6235 12.765V12.7824H49.5888C49.5831 12.794 49.5772 12.8055 49.5715 12.8171H49.5368C49.5311 12.8287 49.5252 12.8403 49.5194 12.8519H49.4848C49.4791 12.8634 49.4732 12.875 49.4674 12.8866H49.4328V12.9039L49.3808 12.9213C49.375 12.9329 49.3691 12.9445 49.3634 12.956H49.3288V12.9734L49.2768 12.9908C49.271 13.0023 49.2651 13.0139 49.2594 13.0255H49.2247C49.2131 13.0428 49.2017 13.0602 49.1901 13.0776H49.1554C49.1497 13.0892 49.1438 13.1007 49.1381 13.1123L49.0861 13.1297V13.147H49.0514C49.0457 13.1586 49.0398 13.1702 49.0341 13.1818H48.9994C48.9937 13.1933 48.9878 13.2049 48.9821 13.2165H48.9474C48.9417 13.2281 48.9358 13.2396 48.93 13.2512H48.8954C48.8897 13.2628 48.8838 13.2743 48.878 13.2859H48.8434C48.8377 13.2975 48.8318 13.3091 48.826 13.3207H48.7914C48.7856 13.3322 48.7798 13.3438 48.774 13.3554H48.7394V13.3727L48.6874 13.3901C48.6816 13.4017 48.6757 13.4133 48.67 13.4248H48.6353C48.6237 13.4422 48.6123 13.4596 48.6007 13.4769H48.566C48.5603 13.4885 48.5544 13.5001 48.5487 13.5116L48.4967 13.529V13.5464H48.462C48.4563 13.558 48.4504 13.5695 48.4447 13.5811H48.41C48.4043 13.5927 48.3984 13.6042 48.3927 13.6158H48.358C48.3523 13.6274 48.3464 13.639 48.3407 13.6506H48.306C48.3003 13.6621 48.2944 13.6737 48.2886 13.6853H48.254C48.2483 13.6969 48.2424 13.7084 48.2366 13.72H48.202V13.7374L48.15 13.7547C48.1442 13.7663 48.1384 13.7779 48.1326 13.7895H48.098C48.0863 13.8068 48.0749 13.8242 48.0633 13.8415H48.0286C48.0229 13.8531 48.017 13.8647 48.0113 13.8763L47.9593 13.8936V13.911H47.9246C47.9189 13.9226 47.913 13.9341 47.9073 13.9457H47.8726C47.8669 13.9573 47.861 13.9689 47.8553 13.9804H47.8206C47.8149 13.992 47.809 14.0036 47.8033 14.0152H47.7686C47.7629 14.0268 47.757 14.0383 47.7513 14.0499H47.7166C47.7109 14.0615 47.705 14.073 47.6992 14.0846H47.6646V14.102L47.6126 14.1193C47.6068 14.1309 47.601 14.1425 47.5952 14.1541H47.5606C47.549 14.1714 47.5375 14.1888 47.5259 14.2062H47.4912C47.4855 14.2177 47.4796 14.2293 47.4739 14.2409L47.4219 14.2583V14.2756H47.3872C47.3815 14.2872 47.3756 14.2988 47.3699 14.3103H47.3352C47.3295 14.3219 47.3236 14.3335 47.3179 14.3451H47.2832C47.2775 14.3566 47.2716 14.3682 47.2659 14.3798H47.2312C47.2255 14.3914 47.2196 14.4029 47.2139 14.4145H47.1792V14.4319L47.1272 14.4492C47.1215 14.4608 47.1156 14.4724 47.1098 14.484H47.0752C47.0695 14.4956 47.0636 14.5071 47.0578 14.5187H47.0232C47.0116 14.5361 47.0001 14.5534 46.9885 14.5708H46.9538C46.9481 14.5824 46.9422 14.5939 46.9365 14.6055L46.8845 14.6229V14.6402H46.8498C46.8441 14.6518 46.8382 14.6634 46.8325 14.675H46.7978C46.7921 14.6865 46.7862 14.6981 46.7805 14.7097H46.7458C46.7401 14.7213 46.7342 14.7328 46.7285 14.7444H46.6938C46.6881 14.756 46.6822 14.7676 46.6765 14.7791H46.6418V14.7965L46.5898 14.8139C46.5841 14.8254 46.5782 14.837 46.5725 14.8486H46.5378V14.866L46.4858 14.8833C46.4801 14.8949 46.4742 14.9065 46.4684 14.918H46.4338C46.4222 14.9354 46.4107 14.9528 46.3991 14.9701H46.3644C46.3587 14.9817 46.3528 14.9933 46.3471 15.0049L46.2951 15.0222V15.0396H46.2604C46.2547 15.0512 46.2488 15.0627 46.2431 15.0743H46.2084C46.2027 15.0859 46.1968 15.0975 46.1911 15.109H46.1564C46.1507 15.1206 46.1448 15.1322 46.1391 15.1438H46.1044C46.0987 15.1553 46.0928 15.1669 46.0871 15.1785H46.0524V15.1959L46.0004 15.2132C45.9947 15.2248 45.9888 15.2364 45.9831 15.2479H45.9484C45.9427 15.2595 45.9368 15.2711 45.9311 15.2827H45.8964C45.8848 15.3 45.8733 15.3174 45.8617 15.3348H45.827C45.8213 15.3463 45.8154 15.3579 45.8097 15.3695L45.7577 15.3868V15.4042H45.723C45.7173 15.4158 45.7114 15.4274 45.7057 15.4389H45.671C45.6653 15.4505 45.6594 15.4621 45.6537 15.4737H45.619C45.6133 15.4852 45.6074 15.4968 45.6017 15.5084H45.567V15.5257L45.515 15.5431C45.5093 15.5547 45.5034 15.5663 45.4977 15.5778H45.463V15.5952L45.411 15.6126C45.4053 15.6241 45.3994 15.6357 45.3937 15.6473H45.359C45.3474 15.6646 45.3359 15.682 45.3243 15.6994H45.2896C45.2839 15.711 45.278 15.7225 45.2723 15.7341L45.2203 15.7515V15.7688H45.1856C45.1799 15.7804 45.174 15.792 45.1683 15.8036H45.1336C45.1279 15.8151 45.122 15.8267 45.1163 15.8383H45.0816C45.0759 15.8499 45.07 15.8614 45.0643 15.873H45.0296C45.0239 15.8846 45.018 15.8961 45.0123 15.9077H44.9776V15.9251L44.9256 15.9425C44.9199 15.954 44.914 15.9656 44.9083 15.9772H44.8736C44.8679 15.9888 44.862 16.0003 44.8563 16.0119H44.8216C44.81 16.0293 44.7985 16.0466 44.7869 16.064H44.7523C44.7465 16.0756 44.7406 16.0871 44.7349 16.0987L44.6829 16.1161V16.1334H44.6482C44.6425 16.145 44.6366 16.1566 44.6309 16.1682H44.5962C44.5905 16.1798 44.5846 16.1913 44.5789 16.2029H44.5442V16.2203L44.4922 16.2376ZM1.79555 0.176925C1.99855 0.174998 2.23079 0.166247 2.38495 0.211651H2.48896V0.229014H2.5583V0.246377H2.61031V0.263739L2.73166 0.281102V0.298465H2.76633V0.315828H2.81833V0.333191H2.853V0.350554H2.90501V0.367917L2.97435 0.38528V0.402643L3.04369 0.420006C3.49806 0.705765 3.8213 1.07073 4.01446 1.61805C4.12898 1.94253 4.0838 2.54087 4.0838 2.97235V20.6825C4.04787 20.7955 4.04787 20.9168 4.0838 21.0298V21.2208H4.10114V21.3076H4.11847C4.12425 21.3423 4.13003 21.377 4.13581 21.4118H4.15314V21.4465C4.16471 21.4522 4.17625 21.4581 4.18782 21.4639V21.4986C4.19938 21.5043 4.21092 21.5102 4.22249 21.516V21.5507L4.29183 21.6028V21.6201H4.3265C4.33227 21.6318 4.33806 21.6432 4.34383 21.6549H4.3785V21.6722H4.41317V21.6896H4.44784V21.7069H4.49985V21.7243C4.63275 21.73 4.76566 21.7358 4.89856 21.7417V21.759H5.01991V21.7764H5.08925V21.7938H5.17592V21.8111H5.22793V21.8285H5.27993V21.8458H5.33194V21.8632H5.38395V21.8806H5.41862V21.8979H5.47062V21.9153C5.50529 21.9269 5.53996 21.9384 5.57463 21.95V21.9674H5.6093V21.9848C5.63241 21.9905 5.65554 21.9964 5.67864 22.0021C5.68442 22.0137 5.69021 22.0252 5.69598 22.0368H5.73065C5.73642 22.0485 5.74221 22.0599 5.74799 22.0716H5.78266V22.0889C5.79999 22.0947 5.81733 22.1006 5.83466 22.1063C5.84043 22.1179 5.84622 22.1294 5.852 22.141H5.88667C5.904 22.1641 5.92134 22.1874 5.93867 22.2105H5.97334C6.01379 22.2568 6.05424 22.3031 6.09469 22.3494C6.14092 22.3898 6.18714 22.4303 6.23337 22.4709V22.5056C6.25071 22.5173 6.26804 22.5287 6.28538 22.5404V22.5751C6.30271 22.5867 6.32005 22.5982 6.33738 22.6098V22.6445C6.34895 22.6503 6.36049 22.6562 6.37205 22.6619C6.37783 22.685 6.38362 22.7083 6.38939 22.7314C6.40095 22.7371 6.4125 22.743 6.42406 22.7487C6.42983 22.7718 6.43562 22.7951 6.44139 22.8182H6.45873V22.8529H6.47607L6.51074 22.9571H6.52807C6.56852 23.0843 6.60897 23.2117 6.64942 23.3391L6.66675 23.5648C6.73176 23.7978 6.65847 24.1563 6.59741 24.3287C6.59164 24.3692 6.58585 24.4098 6.58008 24.4503H6.56274V24.485H6.54541C6.53963 24.5197 6.53385 24.5545 6.52807 24.5892H6.51074L6.47607 24.6934H6.45873V24.7281H6.44139C6.43562 24.7512 6.42983 24.7745 6.42406 24.7975C6.4125 24.8033 6.40095 24.8092 6.38939 24.8149C6.38362 24.838 6.37783 24.8613 6.37205 24.8844C6.36049 24.8901 6.34895 24.896 6.33738 24.9017V24.9364C6.32005 24.9481 6.30271 24.9595 6.28538 24.9712V25.0059C6.26804 25.0175 6.25071 25.029 6.23337 25.0406V25.0754L6.11203 25.1795V25.2143C6.10046 25.22 6.08892 25.2259 6.07736 25.2316V25.249H6.04268C6.00801 25.2894 5.97334 25.3299 5.93867 25.3705H5.904L5.86933 25.4226C5.852 25.4283 5.83466 25.4342 5.81733 25.44C5.81155 25.4516 5.80576 25.4631 5.79999 25.4747H5.76532C5.75955 25.4863 5.75376 25.4978 5.74799 25.5094C5.72488 25.5152 5.70175 25.5211 5.67864 25.5268C5.67287 25.5384 5.66708 25.5499 5.66131 25.5615C5.62664 25.5731 5.59197 25.5846 5.5573 25.5962V25.6136C5.52263 25.6252 5.48796 25.6367 5.45329 25.6483V25.6657C5.41862 25.6714 5.38395 25.6773 5.34928 25.6831V25.7004H5.3146V25.7178C5.27416 25.7235 5.2337 25.7294 5.19326 25.7351V25.7525H5.14125V25.7699H5.05458V25.7872H4.9679V25.8046H4.82922V25.822C4.74549 25.8454 4.40468 25.8218 4.34383 25.8046C4.23404 25.7989 4.12425 25.7931 4.01446 25.7872V25.7699H3.91045V25.7525H3.80644V25.7351H3.71976V25.7178H3.65042V25.7004C3.59842 25.6947 3.54641 25.6888 3.49441 25.6831V25.6657H3.4424V25.6483H3.37306V25.631H3.32105V25.6136H3.26905V25.5962H3.21704V25.5789H3.16504V25.5615C3.13037 25.5558 3.0957 25.5499 3.06103 25.5441V25.5268H3.02635V25.5094C2.99168 25.5037 2.95701 25.4978 2.92234 25.4921C2.70276 25.3822 2.48318 25.2722 2.2636 25.1622C2.25783 25.1505 2.25204 25.1391 2.24627 25.1274C2.22316 25.1217 2.20004 25.1158 2.17693 25.1101C2.17116 25.0984 2.16537 25.087 2.15959 25.0754H2.12492C2.11915 25.0637 2.11336 25.0523 2.10759 25.0406H2.07292C2.06714 25.029 2.06135 25.0175 2.05558 25.0059H2.02091C2.01514 24.9943 2.00935 24.9828 2.00358 24.9712H1.96891L1.93423 24.9191H1.89956C1.89379 24.9074 1.888 24.896 1.88223 24.8844H1.84756L1.81289 24.8323H1.77822C1.76088 24.8092 1.74355 24.7859 1.72621 24.7628H1.69154C1.66843 24.7338 1.64531 24.705 1.6222 24.676H1.58753L1.44885 24.5197H1.41418C1.39684 24.4966 1.37951 24.4734 1.36217 24.4503C1.31017 24.4039 1.25816 24.3576 1.20616 24.3114V24.2767C1.17726 24.2536 1.14838 24.2303 1.11948 24.2072L1.08481 24.1551H1.06747V24.1204C1.03858 24.0973 1.0097 24.074 0.980797 24.0509V24.0162C0.963462 24.0046 0.946127 23.9931 0.928792 23.9815V23.9468C0.911456 23.9351 0.894121 23.9237 0.876786 23.912V23.8773C0.859451 23.8657 0.842115 23.8542 0.82478 23.8426V23.8079C0.813218 23.8021 0.801672 23.7962 0.79011 23.7905V23.7558C0.778547 23.75 0.767002 23.7441 0.755439 23.7384C0.749667 23.7153 0.743877 23.692 0.738104 23.669C0.726541 23.6632 0.714996 23.6573 0.703434 23.6516L0.686098 23.5995H0.668763L0.634093 23.4953C0.62253 23.4896 0.610985 23.4837 0.599422 23.478V23.4432H0.582087V23.4085H0.564752V23.3738H0.547416V23.3391H0.530081V23.3043H0.512746L0.478076 23.2002H0.46074C0.454968 23.1712 0.449178 23.1423 0.443405 23.1133H0.42607V23.0786H0.408735V23.0265H0.391399V22.9918H0.374064L0.356729 22.8876H0.339394V22.8529H0.322058L0.287388 22.6966H0.270053C0.212269 22.442 0.154484 22.1873 0.0967004 21.9327C0.0851436 21.788 0.0735867 21.6433 0.0620299 21.4986H0.0446947C0.0389163 21.3654 0.0331379 21.2323 0.0273595 21.0992V20.9082C-0.0215432 20.7339 0.0100242 20.4544 0.0100242 20.2485V3.0939C0.0100242 2.46576 -0.0267091 1.82557 0.166041 1.39233H0.183377L0.218047 1.28815H0.235382V1.25343H0.252717L0.270053 1.18397L0.304723 1.16661V1.13189L0.339394 1.11452V1.0798L0.374064 1.06243V1.02771L0.408735 1.01034V0.975619L0.478076 0.92353V0.888804L0.616757 0.767264L0.738104 0.628361H0.772774L0.807445 0.576272H0.842115L0.876786 0.524183H0.911456L0.928792 0.489457L0.998132 0.472094L1.01547 0.437369H1.05014V0.420006H1.08481V0.402643H1.11948V0.38528H1.15415V0.367917H1.18882V0.350554L1.25816 0.333191V0.315828L1.36217 0.298465V0.281102H1.39684V0.263739H1.46618V0.246377H1.51819V0.229014H1.58753V0.211651C1.64994 0.191822 1.75365 0.213613 1.79555 0.176925ZM23.95 1.49651H25.0594V1.51387H25.2328V1.53123H25.4581V1.5486H25.6488V1.56596H25.7702V1.58332H25.9262V1.60068H26.0475C26.2465 1.66083 26.495 1.67882 26.6889 1.73959H26.7756V1.75695H26.845V1.77431H26.9316C27.2123 1.87061 27.5359 1.93848 27.7984 2.05212H27.8504V2.06948H27.9024V2.08685H27.9544V2.10421H28.0064V2.12157H28.0411V2.13893L28.1451 2.1563V2.17366H28.1798V2.19102H28.2318V2.20839H28.2665V2.22575C28.2954 2.23153 28.3242 2.23733 28.3531 2.24311V2.26048H28.4051V2.27784H28.4398V2.2952H28.4918C28.4975 2.30678 28.5034 2.31835 28.5091 2.32993H28.5611V2.34729L28.6305 2.36465V2.38202H28.6825V2.39938L28.7865 2.4341V2.45147H28.8212V2.46883H28.8558V2.48619L29.0119 2.53828C29.0176 2.54986 29.0235 2.56143 29.0292 2.57301H29.0812C29.0869 2.58459 29.0928 2.59615 29.0985 2.60773L29.1679 2.6251V2.64246H29.2026V2.65982H29.2372V2.67719H29.2719V2.69455H29.3066V2.71191H29.3412C29.347 2.72349 29.3528 2.73506 29.3586 2.74664H29.3932V2.764H29.4279V2.78136H29.4626V2.79873H29.4973V2.81609H29.5319C29.5376 2.82767 29.5435 2.83923 29.5493 2.85081L29.6186 2.86818C29.6243 2.87976 29.6302 2.89132 29.6359 2.9029H29.6706V2.92027H29.7053C29.711 2.93185 29.7169 2.94341 29.7226 2.95499H29.7573C29.763 2.96657 29.7689 2.97814 29.7746 2.98972L29.844 3.00708V3.02444L29.896 3.04181C29.9017 3.05339 29.9076 3.06495 29.9133 3.07653L29.9826 3.0939C29.9884 3.10548 29.9943 3.11704 30 3.12862H30.0346V3.14598L30.0867 3.16335C30.0924 3.17493 30.0983 3.18649 30.104 3.19807H30.1387V3.21544L30.1907 3.2328C30.1964 3.24438 30.2023 3.25594 30.208 3.26752H30.2427C30.2543 3.28489 30.2657 3.30225 30.2773 3.31961H30.312C30.3177 3.33119 30.3236 3.34276 30.3293 3.35434H30.364C30.3756 3.3717 30.3871 3.38906 30.3987 3.40643H30.4334C30.4391 3.41801 30.445 3.42957 30.4507 3.44115H30.4854C30.497 3.45852 30.5084 3.47588 30.52 3.49324H30.5547C30.5663 3.51061 30.5778 3.52797 30.5894 3.54533H30.624C30.6357 3.56269 30.6471 3.58006 30.6587 3.59742H30.6934L30.7454 3.66687H30.7801L30.8321 3.73632H30.8667C30.8898 3.76527 30.913 3.79419 30.9361 3.82314H30.9707C30.9938 3.85208 31.017 3.88101 31.0401 3.90995H31.0748L31.1788 4.03149H31.2134L31.3695 4.20512H31.4041C31.4677 4.27457 31.5313 4.34403 31.5948 4.41348C31.7522 4.57127 31.9129 4.71594 32.0455 4.89964C32.0859 4.93436 32.1264 4.96909 32.1669 5.00382V5.03854C32.1958 5.06169 32.2246 5.08485 32.2536 5.10799V5.14272C32.2825 5.16586 32.3113 5.18903 32.3402 5.21217V5.2469C32.3633 5.26426 32.3865 5.28162 32.4096 5.29899V5.33371C32.4326 5.35107 32.4559 5.36844 32.4789 5.3858V5.42053L32.5309 5.45525C32.5366 5.47261 32.5425 5.48998 32.5483 5.50734C32.5599 5.51312 32.5713 5.51892 32.5829 5.5247V5.55943L32.6349 5.59416V5.62888C32.6465 5.63466 32.658 5.64046 32.6696 5.64624V5.68097L32.7216 5.7157V5.75042C32.7332 5.7562 32.7447 5.762 32.7563 5.76778V5.80251L32.8083 5.83724V5.87196C32.8199 5.87774 32.8313 5.88354 32.843 5.88933C32.8487 5.90669 32.8546 5.92405 32.8603 5.94141H32.8776V5.97614C32.8892 5.98192 32.9007 5.98772 32.9123 5.9935V6.02823C32.9239 6.03401 32.9353 6.03981 32.947 6.04559C32.9527 6.06295 32.9586 6.08032 32.9643 6.09768H32.9816C32.9874 6.12082 32.9932 6.14399 32.999 6.16713H33.0163C33.022 6.18449 33.0279 6.20186 33.0336 6.21922C33.0453 6.225 33.0567 6.2308 33.0683 6.23658V6.27131H33.0856V6.30604C33.0973 6.31182 33.1087 6.31762 33.1203 6.3234C33.126 6.34654 33.1319 6.36971 33.1377 6.39285C33.1493 6.39863 33.1607 6.40443 33.1723 6.41021C33.178 6.42758 33.1839 6.44494 33.1897 6.4623H33.207V6.49703H33.2243V6.53175H33.2417V6.56648C33.2533 6.57226 33.2647 6.57806 33.2763 6.58384V6.61857H33.2937V6.65329H33.311V6.68802H33.3283V6.72275C33.34 6.72853 33.3514 6.73433 33.363 6.74011V6.77483H33.3803V6.80956H33.3977V6.84429H33.415V6.87901H33.4324V6.91374H33.4497C33.4554 6.93688 33.4613 6.96004 33.467 6.98319C33.4786 6.98897 33.4901 6.99477 33.5017 7.00055V7.05264H33.519V7.08737C33.5306 7.09315 33.5421 7.09895 33.5537 7.10473V7.15682C33.5653 7.1626 33.5768 7.1684 33.5884 7.17418V7.22627H33.6057V7.261H33.623V7.29572H33.6404C33.652 7.33045 33.6634 7.36517 33.675 7.3999H33.6924V7.45199H33.7097C33.7154 7.47513 33.7213 7.49829 33.727 7.52144H33.7444V7.57353H33.7617C33.7674 7.59667 33.7733 7.61983 33.7791 7.64298H33.7964V7.69507H33.8137V7.72979H33.8311V7.78188H33.8484C33.8541 7.80503 33.86 7.82819 33.8657 7.85134H33.8831C33.8888 7.88026 33.8947 7.90922 33.9004 7.93815H33.9177C33.9235 7.97288 33.9294 8.0076 33.9351 8.04233H33.9524V8.07705H33.9697V8.12914H33.9871V8.18123H34.0044V8.23332H34.0217V8.28541C34.1556 8.59567 34.2254 8.97135 34.3338 9.30982C34.3395 9.36769 34.3454 9.42558 34.3511 9.48345C34.404 9.64874 34.4222 9.86842 34.4725 10.0391V10.178H34.4898V10.3169H34.5071V10.4384H34.5245V10.6294H34.5418V10.8551H34.5591V11.0288H34.5765V18.5816C34.5765 18.8148 34.5772 19.0174 34.5245 19.1893V19.2761C34.3752 19.7203 34.1752 20.1214 33.8311 20.37C33.808 20.399 33.7848 20.4278 33.7617 20.4568C33.7444 20.4625 33.7271 20.4684 33.7097 20.4742C33.704 20.4858 33.6981 20.4973 33.6924 20.5089H33.6577C33.652 20.5205 33.6461 20.532 33.6404 20.5436C33.623 20.5494 33.6057 20.5553 33.5884 20.561V20.5784C33.5653 20.5841 33.5421 20.59 33.519 20.5957C33.5133 20.6074 33.5074 20.6188 33.5017 20.6304C33.4786 20.6362 33.4554 20.6421 33.4324 20.6478V20.6652H33.3977V20.6825C33.363 20.6942 33.3283 20.7056 33.2937 20.7173V20.7346C33.1434 20.781 32.9931 20.8273 32.843 20.8735H32.7216V20.8909H32.6869V20.9082H32.2015V20.8909H32.1669V20.8735H32.0282V20.8562H31.9589V20.8388H31.8895V20.8214H31.8202C31.6815 20.7636 31.5428 20.7057 31.4041 20.6478C31.3984 20.6362 31.3925 20.6247 31.3868 20.6131C31.3637 20.6073 31.3405 20.6014 31.3175 20.5957C31.3117 20.5841 31.3058 20.5726 31.3001 20.561H31.2654V20.5436C31.2481 20.5379 31.2308 20.532 31.2134 20.5263C31.2077 20.5146 31.2018 20.5032 31.1961 20.4915H31.1614C31.1498 20.4742 31.1384 20.4568 31.1268 20.4394H31.0921C31.0574 20.399 31.0228 20.3585 30.9881 20.3179C30.9707 20.3122 30.9534 20.3063 30.9361 20.3005C30.9304 20.2889 30.9245 20.2775 30.9187 20.2658H30.9014V20.2311C30.8551 20.1906 30.8089 20.1501 30.7627 20.1096V20.0748C30.7454 20.0632 30.7281 20.0517 30.7107 20.0401V20.0054C30.6991 19.9996 30.6877 19.9937 30.676 19.988C30.6703 19.9707 30.6644 19.9533 30.6587 19.9359H30.6414V19.9012C30.6298 19.8955 30.6183 19.8896 30.6067 19.8838C30.601 19.8665 30.5951 19.8491 30.5894 19.8317H30.572C30.5604 19.797 30.549 19.7623 30.5374 19.7276H30.52C30.5084 19.6928 30.497 19.6581 30.4854 19.6234H30.468C30.4217 19.4729 30.3755 19.3224 30.3293 19.172V19.0504C30.2865 18.9011 30.2947 18.6901 30.2947 18.4948V11.6712C30.2947 11.5114 30.3141 11.2976 30.2773 11.1677V10.9419H30.26V10.8204H30.2427V10.6815H30.2253V10.5773H30.208V10.4905H30.1907V10.3863C30.127 10.1548 30.0635 9.92331 30 9.6918H29.9826V9.65708H29.9653V9.58763H29.948V9.5529H29.9306C29.9249 9.51818 29.919 9.48345 29.9133 9.44872H29.896C29.8902 9.42558 29.8843 9.40242 29.8786 9.37927H29.8613C29.8556 9.35033 29.8497 9.3214 29.844 9.29246H29.8266V9.24037H29.8093C29.7977 9.20564 29.7862 9.17092 29.7746 9.13619H29.7573V9.10147H29.7399V9.06674H29.7226V9.01465C29.711 9.00887 29.6996 9.00307 29.6879 8.99729C29.6822 8.96834 29.6763 8.93942 29.6706 8.91047C29.659 8.90469 29.6476 8.89889 29.6359 8.89311V8.85838H29.6186V8.82366H29.6013V8.78893H29.5839V8.75421C29.5723 8.74843 29.5609 8.74263 29.5493 8.73684C29.5376 8.70212 29.5262 8.66739 29.5146 8.63267C29.503 8.62688 29.4915 8.62109 29.4799 8.6153C29.4742 8.59216 29.4683 8.569 29.4626 8.54585C29.451 8.54007 29.4395 8.53427 29.4279 8.52849V8.49376H29.4106V8.45904H29.3932C29.3875 8.44167 29.3816 8.42431 29.3759 8.40695C29.3643 8.40117 29.3528 8.39537 29.3412 8.38959V8.35486C29.3296 8.34908 29.3182 8.34328 29.3066 8.3375V8.30277L29.2546 8.26805V8.23332C29.2429 8.22754 29.2315 8.22174 29.2199 8.21596V8.18123L29.1679 8.1465V8.11178C29.1563 8.106 29.1448 8.1002 29.1332 8.09442C29.1275 8.07705 29.1216 8.05969 29.1159 8.04233L29.0639 8.0076V7.97288C29.0408 7.95551 29.0176 7.93815 28.9945 7.92079V7.88606L28.8905 7.79925V7.76452C28.8442 7.72401 28.798 7.68349 28.7518 7.64298V7.60825L28.6478 7.52144C28.5842 7.45199 28.5206 7.38254 28.4571 7.31308H28.4225L28.3185 7.19154H28.2838C28.2548 7.15682 28.2261 7.12209 28.1971 7.08737H28.1624L28.1104 7.01791H28.0758C28.0641 7.00055 28.0527 6.98319 28.0411 6.96583H28.0064C27.9948 6.94846 27.9834 6.9311 27.9718 6.91374H27.9371C27.9255 6.89637 27.914 6.87901 27.9024 6.86165H27.8677C27.862 6.85007 27.8561 6.8385 27.8504 6.82692H27.8157C27.8041 6.80956 27.7927 6.7922 27.7811 6.77483H27.7464C27.7407 6.76325 27.7348 6.75169 27.7291 6.74011L27.6771 6.72275V6.70538H27.6424C27.6367 6.6938 27.6308 6.68224 27.625 6.67066L27.5557 6.65329C27.55 6.64171 27.5441 6.63015 27.5384 6.61857L27.4344 6.58384C27.4286 6.57226 27.4227 6.5607 27.417 6.54912L27.3477 6.53175C27.342 6.52017 27.3361 6.50861 27.3303 6.49703H27.2957V6.47966H27.261V6.4623H27.2263V6.44494H27.1917V6.42758H27.157V6.41021H27.1223V6.39285H27.0877C27.0819 6.38127 27.076 6.36971 27.0703 6.35812H27.0183V6.34076H26.9836V6.3234H26.949V6.30604L26.845 6.27131V6.25395H26.793V6.23658H26.7583V6.21922H26.7063V6.20186L26.6369 6.18449V6.16713L26.5329 6.14977V6.13241H26.4983V6.11504H26.4289V6.09768H26.3942V6.08032L26.2729 6.06295V6.04559H26.2382V6.02823H26.1689V6.01087H26.1169V5.9935L25.9262 5.95878V5.94141L25.7528 5.92405V5.90669H25.7008V5.88933H25.5968V5.87196L25.4061 5.8546V5.83724H25.2501V5.81987L24.9208 5.80251V5.78515H24.6781C24.4931 5.78515 24.2429 5.75893 24.0887 5.80251H23.8806V5.81987H23.7593V5.83724H23.6033C23.4708 5.87649 23.2973 5.90148 23.1699 5.94141H23.0832V5.95878L22.8925 5.9935V6.01087H22.8405V6.02823H22.7712V6.04559H22.7365V6.06295L22.6152 6.08032V6.09768H22.5805V6.11504H22.5112V6.13241H22.4765V6.14977L22.3725 6.16713V6.18449L22.3031 6.20186V6.21922H22.2511V6.23658H22.2165V6.25395H22.1645V6.27131L22.0604 6.30604V6.3234H22.0258V6.34076H21.9911V6.35812H21.9391C21.9334 6.36971 21.9275 6.38127 21.9218 6.39285L21.8524 6.41021V6.42758H21.8177V6.44494H21.7831V6.4623H21.7484V6.47966H21.7137V6.49703H21.6791C21.6733 6.50861 21.6674 6.52017 21.6617 6.53175L21.5924 6.54912C21.5867 6.5607 21.5808 6.57226 21.5751 6.58384L21.471 6.61857C21.4653 6.63015 21.4594 6.64171 21.4537 6.65329L21.3844 6.67066C21.3786 6.68224 21.3727 6.6938 21.367 6.70538H21.3324V6.72275L21.2804 6.74011C21.2746 6.75169 21.2687 6.76325 21.263 6.77483H21.2283C21.2167 6.7922 21.2053 6.80956 21.1937 6.82692H21.159C21.1533 6.8385 21.1474 6.85007 21.1417 6.86165H21.107C21.0954 6.87901 21.0839 6.89637 21.0723 6.91374H21.0377C21.026 6.9311 21.0146 6.94846 21.003 6.96583H20.9683C20.9567 6.98319 20.9453 7.00055 20.9336 7.01791H20.899C20.8874 7.03528 20.8759 7.05264 20.8643 7.07L20.8123 7.08737C20.7834 7.12209 20.7546 7.15682 20.7256 7.19154H20.691L20.5869 7.31308H20.5523C20.4887 7.38254 20.4251 7.45199 20.3616 7.52144L20.2576 7.60825V7.64298C20.2113 7.68349 20.1651 7.72401 20.1189 7.76452V7.79925L20.0149 7.88606V7.92079C19.9918 7.93815 19.9686 7.95551 19.9455 7.97288V8.0076L19.8935 8.04233V8.07705L19.8415 8.11178V8.1465L19.7895 8.18123V8.21596C19.7779 8.22174 19.7665 8.22754 19.7549 8.23332V8.26805L19.7028 8.30277V8.3375C19.6912 8.34328 19.6798 8.34908 19.6682 8.35486V8.38959C19.6566 8.39537 19.6451 8.40117 19.6335 8.40695C19.6278 8.42431 19.6219 8.44167 19.6162 8.45904H19.5988C19.5931 8.48218 19.5872 8.50534 19.5815 8.52849C19.5699 8.53427 19.5584 8.54007 19.5468 8.54585V8.58058H19.5295V8.6153C19.5179 8.62109 19.5064 8.62688 19.4948 8.63267C19.4832 8.66739 19.4718 8.70212 19.4602 8.73684C19.4485 8.74263 19.4371 8.74843 19.4255 8.75421V8.78893H19.4081V8.82366H19.3908V8.85838H19.3735V8.89311H19.3561V8.92784H19.3388V8.96256H19.3215V8.99729C19.3099 9.00307 19.2984 9.00887 19.2868 9.01465V9.06674H19.2695V9.10147H19.2521V9.13619H19.2348C19.2232 9.17092 19.2117 9.20564 19.2001 9.24037H19.1828V9.29246H19.1655C19.1597 9.3214 19.1538 9.35033 19.1481 9.37927H19.1308C19.1251 9.40242 19.1192 9.42558 19.1134 9.44872H19.0961C19.0904 9.48345 19.0845 9.51818 19.0788 9.5529H19.0614V9.58763H19.0441V9.65708H19.0268V9.6918H19.0094C19.0037 9.73231 18.9978 9.77284 18.9921 9.81335H18.9748V9.84807H18.9574V9.91752H18.9401V9.96961H18.9228C18.9111 10.0333 18.8996 10.0969 18.8881 10.1606H18.8708V10.2474H18.8534V10.3169H18.8361V10.3863H18.8188C18.813 10.45 18.8071 10.5137 18.8014 10.5773H18.7841V10.6815H18.7667V10.8204H18.7494V10.9419H18.7321V11.1677H18.7147V15.0049C18.7147 15.3205 18.7537 15.7562 18.6801 16.0119V16.1334H18.6627V16.2029H18.6454V16.2724H18.6281V16.3418H18.6107V16.3939H18.5934V16.446H18.5761V16.4981C18.4202 16.8535 18.1981 17.169 17.9 17.3836C17.8826 17.4067 17.8653 17.4299 17.848 17.453H17.8133C17.8076 17.4647 17.8017 17.4761 17.796 17.4878H17.7613C17.7556 17.4994 17.7497 17.5108 17.744 17.5225C17.7266 17.5282 17.7093 17.5341 17.692 17.5398V17.5572H17.6573V17.5746H17.6226V17.5919H17.5879V17.6093H17.5533C17.5476 17.6209 17.5417 17.6324 17.5359 17.644H17.4839V17.6614C17.4609 17.6671 17.4377 17.673 17.4146 17.6787V17.6961H17.3626V17.7135C17.3395 17.7192 17.3163 17.7251 17.2932 17.7308V17.7482H17.2239V17.7656H17.1719V17.7829H17.1199V17.8003C17.0679 17.806 17.0159 17.8119 16.9639 17.8177V17.835H16.8425V17.8524H16.5998C16.5942 17.8605 16.5861 17.8666 16.5767 17.8697C16.5673 17.8728 16.5572 17.8728 16.5478 17.8697V17.8524H16.3051C16.2197 17.8279 16.1077 17.8095 16.0278 17.7829H15.9584V17.7656H15.9238V17.7482H15.8544V17.7308H15.8198V17.7135C15.7851 17.7077 15.7504 17.7018 15.7157 17.6961C15.71 17.6845 15.7042 17.673 15.6984 17.6614H15.6464V17.644C15.6233 17.6383 15.6002 17.6324 15.5771 17.6267V17.6093C15.554 17.6036 15.5308 17.5977 15.5077 17.5919V17.5746C15.4904 17.5688 15.4731 17.5629 15.4557 17.5572C15.4499 17.5456 15.4442 17.5341 15.4384 17.5225C15.4153 17.5168 15.3921 17.5108 15.369 17.5051L15.3344 17.453H15.2997C15.2939 17.4414 15.2881 17.4299 15.2824 17.4183C15.265 17.4126 15.2477 17.4067 15.2304 17.4009C15.2072 17.3719 15.1841 17.3431 15.161 17.3141H15.1263C15.0917 17.2737 15.057 17.2332 15.0223 17.1926C15.0108 17.1869 14.9992 17.181 14.9877 17.1752V17.1405C14.9588 17.1174 14.9299 17.0941 14.901 17.071V17.0363C14.8894 17.0306 14.8779 17.0247 14.8663 17.019V17.0016C14.8548 16.9959 14.8432 16.99 14.8316 16.9842V16.9495C14.8201 16.9438 14.8085 16.9379 14.797 16.9321C14.7912 16.9148 14.7854 16.8974 14.7796 16.8801H14.7623C14.7565 16.857 14.7507 16.8337 14.745 16.8106L14.7103 16.7932C14.6987 16.7585 14.6872 16.7238 14.6756 16.6891H14.6583V16.6543H14.641C14.6294 16.6196 14.6178 16.5849 14.6063 16.5502H14.589C14.5832 16.5154 14.5774 16.4807 14.5716 16.446H14.5543V16.4113H14.5369C14.5312 16.3707 14.5254 16.3302 14.5196 16.2897H14.5023V16.2376H14.4849C14.4792 16.174 14.4734 16.1103 14.4676 16.0466C14.3906 15.7881 14.4329 15.2788 14.4329 14.9528V11.4975C14.4329 11.3481 14.4163 11.149 14.4503 11.0288V10.8551H14.4676V10.6294H14.4849V10.4384H14.5023V10.3169H14.5196V10.178H14.5369V10.0391H14.5543C14.5601 9.96961 14.5658 9.90016 14.5716 9.83071C14.6412 9.59963 14.67 9.32239 14.745 9.10147C14.7507 9.05516 14.7565 9.00886 14.7623 8.96256H14.7796C14.7912 8.8989 14.8028 8.83523 14.8143 8.77157H14.8316C14.8374 8.73106 14.8432 8.69054 14.849 8.65003H14.8663V8.59794H14.8837V8.54585H14.901V8.4764H14.9183V8.44167H14.9357C14.9414 8.40116 14.9472 8.36065 14.953 8.32013H14.9703V8.28541H14.9877C14.9934 8.25068 14.9992 8.21596 15.005 8.18123H15.0223C15.0281 8.1465 15.0339 8.11178 15.0397 8.07705H15.057V8.04233H15.0743C15.0801 8.0076 15.0859 7.97288 15.0917 7.93815H15.109V7.90342H15.1263V7.85134H15.1437C15.1495 7.82818 15.1552 7.80503 15.161 7.78188H15.1784V7.72979H15.1957V7.69507H15.213V7.64298H15.2304C15.2361 7.61983 15.2419 7.59668 15.2477 7.57353H15.265V7.52144H15.2824C15.2881 7.49829 15.2939 7.47514 15.2997 7.45199H15.317V7.3999H15.3344C15.3459 7.36517 15.3575 7.33045 15.369 7.29572H15.3864V7.261H15.4037V7.22627H15.421V7.17418L15.4557 7.15682V7.10473L15.4904 7.08737C15.4962 7.05843 15.5019 7.02949 15.5077 7.00055L15.5424 6.98319C15.5482 6.96004 15.5539 6.93689 15.5597 6.91374H15.5771V6.87901H15.5944V6.84429H15.6117V6.80956H15.6291V6.77483H15.6464V6.74011L15.6811 6.72275V6.68802H15.6984V6.65329H15.7157V6.61857H15.7331V6.58384L15.7677 6.56648C15.7793 6.53175 15.7909 6.49703 15.8024 6.4623H15.8198C15.8255 6.44494 15.8313 6.42758 15.8371 6.41021L15.8718 6.39285C15.8775 6.3697 15.8833 6.34655 15.8891 6.3234L15.9238 6.30604C15.9295 6.28288 15.9353 6.25973 15.9411 6.23658H15.9584C15.9642 6.21922 15.97 6.20186 15.9758 6.18449L16.0104 6.16713C16.0162 6.14398 16.022 6.12083 16.0278 6.09768H16.0451C16.0509 6.08032 16.0567 6.06295 16.0624 6.04559C16.074 6.03981 16.0855 6.03401 16.0971 6.02823V5.9935C16.1087 5.98772 16.1202 5.98192 16.1318 5.97614V5.94141H16.1491C16.1548 5.92405 16.1607 5.90669 16.1665 5.88933C16.1781 5.88354 16.1895 5.87774 16.2011 5.87196V5.83724L16.2531 5.80251V5.76778C16.2648 5.762 16.2762 5.7562 16.2878 5.75042V5.7157L16.3398 5.68097V5.64624C16.3514 5.64046 16.3629 5.63466 16.3745 5.62888V5.59416L16.4265 5.55943V5.5247C16.4381 5.51892 16.4495 5.51312 16.4612 5.50734C16.4669 5.48998 16.4728 5.47261 16.4785 5.45525L16.5305 5.42053V5.3858C16.5536 5.36844 16.5768 5.35107 16.5998 5.33371V5.29899C16.6229 5.28162 16.6461 5.26426 16.6692 5.2469V5.21217C16.6981 5.18903 16.7269 5.16586 16.7559 5.14272V5.10799C16.7848 5.08485 16.8136 5.06169 16.8425 5.03854V5.00382C16.8829 4.96909 16.9234 4.93436 16.9639 4.89964V4.86491C17.0216 4.81282 17.0794 4.76074 17.1372 4.70865V4.67392L17.2932 4.53502L17.6053 4.20512H17.64L17.796 4.03149H17.8306L17.9347 3.90995H17.9693C17.9924 3.88101 18.0156 3.85208 18.0387 3.82314H18.0733C18.0964 3.79419 18.1196 3.76527 18.1427 3.73632H18.1773L18.2294 3.66687H18.264L18.316 3.59742H18.3507C18.3623 3.58006 18.3738 3.56269 18.3854 3.54533L18.4374 3.52797C18.4431 3.51639 18.449 3.50482 18.4547 3.49324H18.4894C18.501 3.47588 18.5124 3.45852 18.5241 3.44115H18.5587C18.5644 3.42957 18.5703 3.41801 18.5761 3.40643H18.6107C18.6223 3.38906 18.6338 3.3717 18.6454 3.35434H18.6801C18.6858 3.34276 18.6917 3.33119 18.6974 3.31961H18.7321C18.7437 3.30225 18.7551 3.28489 18.7667 3.26752H18.8014C18.8071 3.25594 18.813 3.24438 18.8188 3.2328L18.8708 3.21544V3.19807H18.9054C18.9111 3.18649 18.917 3.17493 18.9228 3.16335H18.9574C18.9632 3.15177 18.969 3.1402 18.9748 3.12862L19.0268 3.11126V3.0939L19.0961 3.07653V3.05917L19.1481 3.04181C19.1538 3.03023 19.1597 3.01866 19.1655 3.00708L19.2348 2.98972V2.97235L19.2868 2.95499C19.2925 2.94341 19.2984 2.93185 19.3041 2.92027L19.3735 2.9029C19.3792 2.89132 19.3851 2.87976 19.3908 2.86818L19.4602 2.85081C19.4659 2.83923 19.4718 2.82767 19.4775 2.81609H19.5122V2.79873H19.5468V2.78136H19.5815V2.764H19.6162V2.74664H19.6508C19.6566 2.73506 19.6625 2.72349 19.6682 2.71191H19.7028V2.69455H19.7375V2.67719H19.7722V2.65982H19.8069V2.64246H19.8415V2.6251L19.9109 2.60773C19.9166 2.59615 19.9225 2.58459 19.9282 2.57301H19.9802C19.9859 2.56143 19.9918 2.54986 19.9975 2.53828C20.0265 2.5325 20.0553 2.5267 20.0842 2.52092C20.0899 2.50934 20.0958 2.49777 20.1016 2.48619H20.1536V2.46883H20.1882V2.45147H20.2229V2.4341L20.3269 2.39938V2.38202H20.3789V2.36465L20.4483 2.34729V2.32993H20.5003C20.506 2.31835 20.5119 2.30678 20.5176 2.2952H20.5696V2.27784H20.6043V2.26048L20.7083 2.24311V2.22575L20.7776 2.20839V2.19102H20.8296V2.17366H20.8643V2.1563L20.9683 2.13893V2.12157H21.003V2.10421L21.159 2.06948V2.05212H21.211V2.03476H21.2457V2.01739H21.315V2.00003H21.367V1.98267H21.4017V1.96531H21.471V1.94794H21.523V1.93058H21.5751V1.91322H21.6444V1.89585H21.6964V1.87849H21.7657V1.86113H21.8351V1.84377H21.8871V1.8264L22.0778 1.79168V1.77431L22.2338 1.75695V1.73959L22.4765 1.70486V1.6875H22.5805C22.7299 1.64183 22.9286 1.62786 23.0832 1.58332H23.2392V1.56596H23.3606V1.5486H23.5513V1.53123C23.6577 1.50097 23.8838 1.55554 23.95 1.49651ZM8.52162 1.93058C8.98447 1.9249 9.31904 2.01578 9.61374 2.17366H9.64841V2.19102H9.68308V2.20839H9.71775V2.22575H9.75242V2.24311L9.80443 2.26048C9.81021 2.27205 9.81599 2.28363 9.82176 2.2952H9.85644C9.86221 2.30678 9.86799 2.31835 9.87377 2.32993H9.90844L9.94311 2.38202H9.97778L10.0298 2.45147H10.0645L10.2031 2.60773L10.2898 2.67719V2.71191L10.3592 2.764C10.3649 2.78136 10.3707 2.79873 10.3765 2.81609L10.4112 2.83345V2.86818L10.4458 2.88554C10.4516 2.9029 10.4574 2.92027 10.4632 2.93763H10.4805C10.4921 2.97235 10.5036 3.00708 10.5152 3.04181L10.5498 3.05917C10.5556 3.08232 10.5614 3.10547 10.5672 3.12862H10.5845C10.5903 3.15177 10.5961 3.17492 10.6019 3.19807H10.6192V3.25016H10.6365V3.28489H10.6539V3.33698H10.6712V3.38907H10.6885V3.44115H10.7059V3.49324H10.7232C10.729 3.53954 10.7348 3.58584 10.7405 3.63215H10.7579V3.73632H10.7752V3.85786H10.7925V4.11831C10.7947 4.35692 10.7474 4.59339 10.6539 4.81282C10.6481 4.84755 10.6423 4.88228 10.6365 4.917H10.6192C10.6134 4.94015 10.6076 4.9633 10.6019 4.98645H10.5845V5.02118H10.5672V5.05591H10.5498V5.09063H10.5325V5.12536H10.5152V5.16008L10.4805 5.17744V5.21217L10.4458 5.22953V5.26426H10.4285C10.4227 5.28162 10.4169 5.29899 10.4112 5.31635L10.3765 5.33371V5.36844L10.3072 5.42053V5.45525L10.1511 5.59416L10.0298 5.73306H9.99512L9.94311 5.80251H9.90844C9.90266 5.81409 9.89688 5.82566 9.89111 5.83724H9.85644C9.85066 5.84881 9.84488 5.86039 9.8391 5.87196H9.80443C9.79865 5.88354 9.79287 5.89511 9.7871 5.90669H9.75242C9.74665 5.91826 9.74087 5.92984 9.73509 5.94141L9.66575 5.95878V5.97614H9.63108V5.9935L9.52707 6.02823V6.04559L9.09369 6.18449H8.98967V6.20186H8.85099V6.21922C8.76362 6.24367 8.51491 6.21964 8.45228 6.20186H8.3136V6.18449H8.22692V6.16713H8.14025V6.14977H8.08824V6.13241L7.91489 6.09768V6.08032H7.88022V6.06295H7.82821V6.04559L7.75887 6.02823V6.01087H7.70687C7.70109 5.99929 7.69531 5.98771 7.68953 5.97614H7.65486V5.95878H7.62019V5.94141H7.58552V5.92405H7.55085L7.53351 5.88933H7.49884V5.87196L7.44684 5.8546L7.4295 5.81987H7.39483L7.36016 5.76778H7.32549L7.27349 5.69833H7.23882L7.11747 5.55943L7.04813 5.50734V5.47261L6.96145 5.40316V5.36844L6.90945 5.33371V5.29899L6.87478 5.28162V5.2469L6.84011 5.22953L6.82277 5.16008L6.7881 5.14272L6.77076 5.07327H6.75343V5.03854H6.73609L6.70142 4.93436H6.68409L6.58008 4.62183V4.55238C6.51523 4.35707 6.48165 4.00847 6.54541 3.78841V3.68423H6.56274V3.59742H6.58008V3.52797H6.59741V3.45852H6.61475V3.40643H6.63208V3.35434H6.64942C6.6552 3.3254 6.66097 3.29646 6.66675 3.26752H6.68409V3.2328H6.70142V3.18071H6.71876L6.73609 3.11126H6.75343L6.77076 3.04181L6.80543 3.02444L6.82277 2.95499L6.85744 2.93763V2.9029H6.87478L6.89211 2.85081L6.92678 2.83345V2.79873L6.97879 2.764V2.72927L7.10013 2.6251V2.59037L7.22148 2.50356L7.30816 2.39938H7.34283L7.3775 2.34729H7.41217L7.4295 2.31256H7.46417L7.48151 2.27784L7.53351 2.26048V2.24311L7.60286 2.22575L7.62019 2.19102L7.68953 2.17366V2.1563L7.75887 2.13893V2.12157H7.81088V2.10421L7.88022 2.08685V2.06948L8.34827 1.94794C8.40939 1.93041 8.48229 1.96482 8.52162 1.93058ZM8.41761 7.3999H8.88566V7.41726H8.92033V7.43463H9.05902L9.50973 7.57353V7.59089L9.61374 7.62562V7.64298L9.68308 7.66034C9.68886 7.67192 9.69464 7.68349 9.70042 7.69507L9.76976 7.71243C9.77554 7.72401 9.78132 7.73558 9.7871 7.74716H9.82176V7.76452L9.87377 7.78188C9.87955 7.79346 9.88533 7.80503 9.89111 7.81661H9.92578L9.96045 7.8687H9.99512L10.0991 7.99024H10.1338L10.2205 8.11178L10.3245 8.19859C10.4856 8.42228 10.614 8.66783 10.7059 8.92784C10.7116 8.97414 10.7174 9.02044 10.7232 9.06674H10.7405C10.7521 9.1767 10.7636 9.28667 10.7752 9.39664C10.8092 9.51687 10.7925 9.71594 10.7925 9.86543V15.7515C10.7983 15.954 10.8041 16.1566 10.8099 16.3592C10.8505 16.4998 10.856 16.6922 10.8965 16.828V16.9321H10.9139V16.9842H10.9312L10.9486 17.1579H10.9659C10.9774 17.2215 10.989 17.2852 11.0006 17.3489H11.0179V17.4009H11.0352V17.4704H11.0526V17.5051H11.0699L11.0872 17.6267H11.1046V17.6614H11.1219C11.1277 17.6961 11.1335 17.7308 11.1392 17.7656H11.1566V17.8003H11.1739V17.8697H11.1912C11.197 17.8928 11.2028 17.9161 11.2086 17.9392H11.2259V17.9913H11.2433C11.249 18.0144 11.2548 18.0376 11.2606 18.0607H11.2779V18.1128H11.2953V18.1475H11.3126C11.3184 18.1706 11.3242 18.1939 11.3299 18.217H11.3473C11.353 18.2401 11.3588 18.2634 11.3646 18.2864H11.3819V18.3212H11.3993V18.3559H11.4166V18.3906H11.4339V18.4254H11.4513V18.4601H11.4686V18.4948H11.4859V18.5295H11.5033V18.5643C11.5148 18.57 11.5264 18.5759 11.538 18.5816V18.6163H11.5553V18.6511C11.5669 18.6568 11.5784 18.6627 11.59 18.6684C11.6015 18.7032 11.6131 18.7379 11.6246 18.7726C11.6362 18.7783 11.6477 18.7842 11.6593 18.79V18.8247C11.6709 18.8304 11.6824 18.8363 11.694 18.8421V18.8768C11.7055 18.8825 11.7171 18.8884 11.7286 18.8942C11.7344 18.9172 11.7402 18.9405 11.746 18.9636C11.7575 18.9693 11.7691 18.9752 11.7806 18.981V19.0157C11.798 19.0273 11.8153 19.0388 11.8327 19.0504V19.0851C11.8442 19.0909 11.8558 19.0968 11.8673 19.1025V19.1372C11.8847 19.1489 11.902 19.1603 11.9193 19.172V19.2067C11.9367 19.2183 11.954 19.2298 11.9713 19.2414V19.2761C11.9887 19.2878 12.006 19.2992 12.0233 19.3109V19.3456C12.0349 19.3513 12.0464 19.3572 12.058 19.3629L12.0927 19.415H12.11V19.4498C12.1389 19.4729 12.1678 19.4961 12.1967 19.5192V19.5539C12.2429 19.5944 12.2891 19.6349 12.3354 19.6755V19.7102L12.4567 19.8144C12.5087 19.8722 12.5607 19.9301 12.6127 19.988H12.6474C12.6532 19.9996 12.659 20.0111 12.6647 20.0227H12.6821L12.7688 20.1269H12.8034C12.8265 20.1559 12.8497 20.1847 12.8728 20.2137H12.9074C12.9305 20.2427 12.9537 20.2716 12.9768 20.3005H13.0114L13.0461 20.3526H13.0808L13.1155 20.4047H13.1501L13.1848 20.4568H13.2195C13.2252 20.4684 13.231 20.4799 13.2368 20.4915H13.2715L13.3061 20.5436C13.3293 20.5494 13.3524 20.5553 13.3755 20.561C13.3813 20.5726 13.387 20.5841 13.3928 20.5957H13.4275C13.4333 20.6074 13.4391 20.6188 13.4448 20.6304H13.4795C13.4853 20.6421 13.4911 20.6535 13.4968 20.6652H13.5315C13.5373 20.6768 13.5431 20.6883 13.5488 20.6999C13.5835 20.7115 13.6182 20.723 13.6529 20.7346C13.6586 20.7463 13.6644 20.7577 13.6702 20.7693C13.6933 20.7751 13.7164 20.781 13.7395 20.7867C13.7453 20.7983 13.7511 20.8098 13.7569 20.8214H13.7915V20.8388H13.8262V20.8562H13.8609V20.8735H13.8955V20.8909H13.9302V20.9082H13.9649V20.9256H13.9996V20.943H14.0342V20.9603H14.0689V20.9777H14.1036V20.9951C14.1267 21.0008 14.1498 21.0067 14.1729 21.0124V21.0298H14.2076V21.0472H14.2596V21.0645C14.2827 21.0702 14.3058 21.0761 14.3289 21.0819V21.0992H14.3809V21.1166H14.4329V21.134H14.4676V21.1513H14.5196V21.1687H14.5543V21.1861C14.589 21.1918 14.6236 21.1977 14.6583 21.2034V21.2208H14.693V21.2381C14.7334 21.2439 14.7739 21.2498 14.8143 21.2555V21.2729H14.849V21.2902H14.9183V21.3076H14.9877V21.325H15.0397V21.3423C15.0859 21.3481 15.1321 21.354 15.1784 21.3597C15.5657 21.4899 16.055 21.5331 16.5652 21.5333C16.8311 21.5333 17.1176 21.5416 17.3279 21.4812H17.4666C17.6077 21.4397 17.783 21.4215 17.9173 21.377H17.9867C18.0652 21.3503 18.1695 21.317 18.2467 21.2902H18.316V21.2729H18.3507V21.2555C18.3911 21.2498 18.4317 21.2439 18.472 21.2381V21.2208H18.5067V21.2034C18.5414 21.1977 18.5761 21.1918 18.6107 21.1861V21.1687H18.6454V21.1513C18.6743 21.1456 18.7031 21.1397 18.7321 21.134V21.1166C18.7667 21.1109 18.8014 21.105 18.8361 21.0992V21.0819C18.8591 21.0761 18.8824 21.0702 18.9054 21.0645V21.0472H18.9574V21.0298H18.9921V21.0124C19.0152 21.0067 19.0384 21.0008 19.0614 20.9951V20.9777H19.0961V20.9603H19.1308V20.943H19.1655V20.9256H19.2001V20.9082H19.2348V20.8909H19.2695V20.8735H19.3041V20.8562H19.3388V20.8388H19.3735V20.8214H19.4081C19.4139 20.8098 19.4198 20.7983 19.4255 20.7867C19.4485 20.781 19.4718 20.7751 19.4948 20.7693C19.5005 20.7577 19.5064 20.7463 19.5122 20.7346C19.5468 20.723 19.5815 20.7115 19.6162 20.6999C19.6219 20.6883 19.6278 20.6768 19.6335 20.6652H19.6682C19.6739 20.6535 19.6798 20.6421 19.6855 20.6304H19.7202C19.7259 20.6188 19.7318 20.6074 19.7375 20.5957H19.7722C19.7779 20.5841 19.7838 20.5726 19.7895 20.561C19.8126 20.5553 19.8358 20.5494 19.8589 20.5436C19.8705 20.5263 19.8819 20.5089 19.8935 20.4915H19.9282C19.9339 20.4799 19.9398 20.4684 19.9455 20.4568H19.9802C19.9918 20.4395 20.0033 20.4221 20.0149 20.4047H20.0496C20.0612 20.3874 20.0726 20.37 20.0842 20.3526H20.1189C20.1305 20.3353 20.1419 20.3179 20.1536 20.3005H20.1882C20.2113 20.2716 20.2345 20.2427 20.2576 20.2137H20.2922C20.3039 20.1964 20.3153 20.179 20.3269 20.1616H20.3443C20.35 20.15 20.3559 20.1385 20.3616 20.1269H20.3963C20.4366 20.0806 20.4771 20.0343 20.5176 19.988H20.5523C20.5869 19.9476 20.6216 19.907 20.6563 19.8665C20.714 19.8144 20.7718 19.7623 20.8296 19.7102V19.6755C20.8413 19.6698 20.8527 19.6638 20.8643 19.6581V19.6408C20.899 19.6118 20.9336 19.5829 20.9683 19.5539V19.5192C20.9973 19.4961 21.026 19.4729 21.055 19.4498V19.415C21.0839 19.3919 21.1127 19.3687 21.1417 19.3456V19.3109C21.159 19.2992 21.1763 19.2878 21.1937 19.2761V19.2414C21.211 19.2298 21.2283 19.2183 21.2457 19.2067V19.172C21.263 19.1603 21.2804 19.1489 21.2977 19.1372V19.1025C21.3093 19.0968 21.3207 19.0909 21.3324 19.0851V19.0504C21.3497 19.0388 21.367 19.0273 21.3844 19.0157V18.981C21.396 18.9752 21.4074 18.9693 21.419 18.9636C21.4248 18.9405 21.4307 18.9172 21.4364 18.8942C21.448 18.8884 21.4594 18.8825 21.471 18.8768V18.8421C21.4827 18.8363 21.4941 18.8304 21.5057 18.8247V18.79C21.5173 18.7842 21.5288 18.7783 21.5404 18.7726C21.552 18.7379 21.5634 18.7032 21.5751 18.6684C21.5867 18.6627 21.5981 18.6568 21.6097 18.6511C21.6154 18.628 21.6213 18.6047 21.6271 18.5816C21.6387 18.5759 21.6501 18.57 21.6617 18.5643V18.5295H21.6791V18.4948H21.6964V18.4601H21.7137V18.4254H21.7311V18.3906H21.7484V18.3559H21.7657V18.3212H21.7831V18.2864H21.8004V18.2517H21.8177V18.217H21.8351C21.8408 18.1939 21.8467 18.1706 21.8524 18.1475H21.8698V18.1128H21.8871V18.0607H21.9044C21.9101 18.0376 21.916 18.0144 21.9218 17.9913H21.9391V17.9392H21.9564C21.9621 17.9161 21.968 17.8928 21.9738 17.8697H21.9911V17.8003H22.0084V17.7656H22.0258C22.0315 17.7308 22.0374 17.6961 22.0431 17.6614H22.0604V17.6267H22.0778C22.0835 17.5862 22.0894 17.5456 22.0951 17.5051H22.1124V17.4704H22.1298V17.4009H22.1471V17.3489H22.1645C22.1761 17.2851 22.1876 17.2215 22.1991 17.1579H22.2165C22.2222 17.1 22.2281 17.042 22.2338 16.9842H22.2511V16.9321H22.2685V16.828C22.3089 16.6921 22.3151 16.5 22.3551 16.3592V16.1508H22.3725V12.3136C22.3725 11.998 22.3333 11.5621 22.4071 11.3066V11.185C22.4534 11.0345 22.4997 10.8841 22.5458 10.7336H22.5632C22.5748 10.6989 22.5862 10.6641 22.5978 10.6294H22.6152V10.5947H22.6325C22.6382 10.5715 22.6441 10.5484 22.6498 10.5252C22.6614 10.5194 22.6729 10.5136 22.6845 10.5079C22.6902 10.4847 22.6961 10.4616 22.7018 10.4384C22.7135 10.4326 22.7249 10.4268 22.7365 10.421V10.3863C22.7481 10.3805 22.7596 10.3747 22.7712 10.369C22.7769 10.3516 22.7828 10.3342 22.7885 10.3169L22.8405 10.2821V10.2474C22.8695 10.2243 22.8983 10.2011 22.9272 10.178V10.1432C22.9676 10.1085 23.008 10.0738 23.0485 10.0391C23.0543 10.0275 23.0602 10.0159 23.0659 10.0043H23.1006C23.1236 9.97539 23.1468 9.94647 23.1699 9.91752H23.2046C23.2162 9.90016 23.2276 9.8828 23.2392 9.86543H23.2739C23.2855 9.84807 23.297 9.83071 23.3086 9.81335H23.3432C23.349 9.80176 23.3549 9.7902 23.3606 9.77862L23.4299 9.76126C23.4356 9.74968 23.4415 9.73811 23.4473 9.72653L23.5166 9.70917V9.6918H23.5513V9.67444L23.6553 9.63972V9.62235H23.7073V9.60499H23.742V9.58763L23.898 9.5529V9.53554H23.9673V9.51818H24.0193V9.50081H24.106V9.48345H24.21C24.2828 9.46242 24.5694 9.4178 24.6781 9.44872V9.46609H24.8167V9.48345H24.9381V9.50081H25.0074V9.51818H25.0768V9.53554L25.1981 9.5529V9.57026H25.2328V9.58763H25.2848V9.60499H25.3195V9.62235H25.3715V9.63972L25.4755 9.67444V9.6918H25.5101V9.70917L25.6142 9.74389C25.6199 9.75548 25.6258 9.76704 25.6315 9.77862H25.6662V9.79598L25.7182 9.81335C25.7239 9.82493 25.7298 9.83649 25.7355 9.84807H25.7702C25.7759 9.85965 25.7818 9.87122 25.7875 9.8828L25.8395 9.90016L25.8915 9.96961H25.9262C25.9725 10.0217 26.0187 10.0738 26.0649 10.1259C26.0879 10.1432 26.1112 10.1606 26.1342 10.178V10.2127C26.1573 10.2301 26.1805 10.2474 26.2036 10.2648V10.2995L26.2556 10.3342V10.369C26.2672 10.3747 26.2786 10.3805 26.2902 10.3863C26.296 10.4037 26.3018 10.421 26.3076 10.4384H26.3249V10.4731C26.3365 10.4789 26.348 10.4847 26.3596 10.4905C26.3653 10.5136 26.3712 10.5368 26.3769 10.56C26.3885 10.5657 26.4 10.5715 26.4116 10.5773C26.4173 10.6063 26.4232 10.6352 26.4289 10.6641C26.4405 10.6699 26.452 10.6757 26.4636 10.6815V10.7336H26.4809C26.4866 10.7567 26.4925 10.7799 26.4983 10.803H26.5156V10.8551H26.5329V10.9072H26.5503V10.9593H26.5676C26.5733 10.9998 26.5792 11.0403 26.5849 11.0808H26.6023V11.1677H26.6196C26.6253 11.2313 26.6312 11.295 26.6369 11.3586H26.6543V15.8209C26.6543 15.9704 26.6709 16.1695 26.6369 16.2897V16.4633H26.6196V16.6891H26.6023V16.8801H26.5849V17.0016H26.5676V17.1405H26.5503V17.2794H26.5329C26.5272 17.3489 26.5214 17.4183 26.5156 17.4878H26.4983V17.5746H26.4809V17.6614H26.4636V17.7656H26.4463V17.835H26.4289V17.9218H26.4116V18.0086H26.3942V18.0607H26.3769V18.1475H26.3596C26.348 18.217 26.3364 18.2864 26.3249 18.3559H26.3076C26.296 18.4196 26.2844 18.4833 26.2729 18.5469H26.2556C26.2498 18.5873 26.2439 18.628 26.2382 18.6684H26.2209V18.7205H26.2036V18.7726H26.1862V18.8247H26.1689V18.8768H26.1516C26.1458 18.9172 26.1399 18.9579 26.1342 18.9983H26.1169V19.0331H26.0995C26.0938 19.0678 26.0879 19.1025 26.0822 19.1372H26.0649V19.172H26.0475V19.2414H26.0302V19.2761H26.0129V19.3282H25.9955V19.3803H25.9782V19.415H25.9609V19.4671H25.9435C25.9378 19.4902 25.9319 19.5135 25.9262 19.5366H25.9089C25.9031 19.5656 25.8972 19.5944 25.8915 19.6234H25.8742V19.6755H25.8569C25.8511 19.6986 25.8452 19.7218 25.8395 19.7449H25.8222V19.797H25.8048C25.7991 19.8201 25.7932 19.8434 25.7875 19.8665H25.7702V19.9186H25.7528V19.9533H25.7355C25.7298 19.9764 25.7239 19.9996 25.7182 20.0227H25.7008V20.0575H25.6835V20.0922H25.6662V20.1269H25.6488V20.1616H25.6315V20.1964H25.6142V20.2311H25.5968V20.2658H25.5795V20.3179C25.5679 20.3236 25.5564 20.3295 25.5448 20.3353C25.5391 20.3584 25.5332 20.3816 25.5275 20.4047H25.5101V20.4394H25.4928V20.4742H25.4755V20.5089H25.4581V20.5436H25.4408V20.5784C25.4292 20.5841 25.4178 20.59 25.4061 20.5957V20.6304H25.3888V20.6652H25.3715C25.3657 20.6883 25.3599 20.7115 25.3541 20.7346C25.3425 20.7404 25.3311 20.7463 25.3195 20.752C25.3137 20.7751 25.3078 20.7983 25.3021 20.8214C25.2905 20.8272 25.2791 20.8331 25.2675 20.8388C25.2617 20.8619 25.2558 20.8852 25.2501 20.9082C25.2385 20.914 25.2271 20.9199 25.2155 20.9256C25.2097 20.9487 25.2038 20.972 25.1981 20.9951C25.1865 21.0008 25.1751 21.0067 25.1634 21.0124C25.1577 21.0355 25.1518 21.0588 25.1461 21.0819C25.1345 21.0876 25.1231 21.0935 25.1114 21.0992V21.134C25.0998 21.1397 25.0884 21.1456 25.0768 21.1513C25.071 21.1744 25.0652 21.1977 25.0594 21.2208C25.0478 21.2265 25.0364 21.2324 25.0248 21.2381V21.2729C25.0131 21.2786 25.0017 21.2845 24.9901 21.2902V21.325H24.9728C24.967 21.3423 24.9611 21.3597 24.9554 21.377C24.9438 21.3828 24.9324 21.3887 24.9208 21.3944V21.4291C24.9091 21.4349 24.8977 21.4408 24.8861 21.4465V21.4812C24.8687 21.4929 24.8514 21.5043 24.8341 21.516V21.5507C24.8225 21.5564 24.811 21.5623 24.7994 21.568V21.6028C24.7878 21.6085 24.7764 21.6144 24.7647 21.6201C24.759 21.6375 24.7531 21.6549 24.7474 21.6722C24.7301 21.6839 24.7127 21.6953 24.6954 21.7069V21.7417C24.6838 21.7474 24.6723 21.7533 24.6607 21.759V21.7938C24.6491 21.7995 24.6377 21.8054 24.6261 21.8111C24.6203 21.8285 24.6144 21.8458 24.6087 21.8632C24.5857 21.8806 24.5624 21.8979 24.5394 21.9153V21.95C24.522 21.9617 24.5047 21.9731 24.4874 21.9848V22.0195C24.4643 22.0368 24.4411 22.0542 24.418 22.0716V22.1063C24.3891 22.1294 24.3603 22.1527 24.3314 22.1757V22.2105C24.3024 22.2336 24.2736 22.2568 24.2447 22.2799V22.3146C24.2216 22.332 24.1984 22.3494 24.1753 22.3667C24.158 22.3898 24.1407 22.4131 24.1233 22.4362H24.106V22.4709C24.054 22.5173 24.002 22.5636 23.95 22.6098V22.6445C23.8402 22.7487 23.7305 22.8529 23.6206 22.9571C23.5743 23.0092 23.5281 23.0613 23.4819 23.1133H23.4473C23.3953 23.1712 23.3432 23.229 23.2912 23.287H23.2566C23.2219 23.3274 23.1872 23.3679 23.1526 23.4085H23.1179C23.1122 23.4201 23.1063 23.4316 23.1006 23.4432C23.0832 23.4549 23.0659 23.4663 23.0485 23.478V23.4953H23.0139C22.9908 23.5243 22.9676 23.5531 22.9445 23.5821H22.9099C22.8925 23.6052 22.8752 23.6285 22.8579 23.6516H22.8232C22.8059 23.6747 22.7885 23.6979 22.7712 23.721H22.7365C22.7249 23.7384 22.7135 23.7558 22.7018 23.7731H22.6672C22.6556 23.7905 22.6441 23.8079 22.6325 23.8252H22.5978C22.5862 23.8426 22.5748 23.8599 22.5632 23.8773H22.5285C22.5228 23.8889 22.5169 23.9004 22.5112 23.912H22.4765C22.4649 23.9294 22.4534 23.9468 22.4418 23.9641H22.4071C22.4014 23.9758 22.3955 23.9872 22.3898 23.9988H22.3551C22.3435 24.0162 22.3321 24.0336 22.3205 24.0509H22.2858C22.2801 24.0626 22.2742 24.074 22.2685 24.0857C22.2511 24.0914 22.2338 24.0973 22.2165 24.103V24.1204H22.1818C22.1761 24.132 22.1702 24.1435 22.1645 24.1551H22.1298C22.1241 24.1667 22.1182 24.1782 22.1124 24.1898H22.0778C22.0721 24.2015 22.0662 24.2129 22.0604 24.2246C22.0374 24.2303 22.0142 24.2362 21.9911 24.2419V24.2593C21.9738 24.265 21.9564 24.2709 21.9391 24.2767C21.9334 24.2883 21.9275 24.2997 21.9218 24.3114C21.8987 24.3171 21.8755 24.323 21.8524 24.3287C21.8467 24.3404 21.8408 24.3518 21.8351 24.3635C21.812 24.3692 21.7888 24.3751 21.7657 24.3808C21.76 24.3925 21.7541 24.4039 21.7484 24.4156C21.7253 24.4213 21.7021 24.4272 21.6791 24.4329C21.6733 24.4446 21.6674 24.456 21.6617 24.4676C21.6387 24.4734 21.6154 24.4793 21.5924 24.485C21.5867 24.4966 21.5808 24.5081 21.5751 24.5197H21.5404V24.5371H21.5057V24.5545H21.471V24.5718H21.4364C21.4307 24.5835 21.4248 24.5949 21.419 24.6066H21.3844V24.6239H21.3497V24.6413H21.315V24.6586H21.2804V24.676H21.2457V24.6934C21.2226 24.6991 21.1994 24.705 21.1763 24.7107C21.1706 24.7224 21.1647 24.7338 21.159 24.7455H21.107V24.7628H21.0723C21.0666 24.7745 21.0607 24.7859 21.055 24.7975H21.003C20.9973 24.8092 20.9914 24.8206 20.9857 24.8323H20.9336V24.8496H20.899V24.867H20.8643V24.8844C20.8296 24.896 20.795 24.9074 20.7603 24.9191V24.9364H20.7083V24.9538C20.6852 24.9595 20.662 24.9654 20.639 24.9712V24.9885H20.5869V25.0059C20.5639 25.0116 20.5407 25.0175 20.5176 25.0233V25.0406H20.4656V25.058H20.4309V25.0754H20.3789V25.0927C20.3559 25.0984 20.3326 25.1043 20.3096 25.1101V25.1274C20.2806 25.1332 20.2519 25.1391 20.2229 25.1448V25.1622C20.1882 25.1679 20.1536 25.1738 20.1189 25.1795V25.1969H20.0842V25.2143C20.0322 25.2259 19.9802 25.2373 19.9282 25.249V25.2663H19.8762V25.2837H19.8415V25.3011H19.7722V25.3184H19.7202V25.3358H19.6855V25.3532H19.6162V25.3705H19.5642V25.3879H19.5122V25.4052H19.4428C19.262 25.4704 19.0408 25.5188 18.8534 25.5789C18.7957 25.5846 18.7378 25.5905 18.6801 25.5962C18.515 25.649 18.2956 25.6671 18.1253 25.7178C18.0329 25.7235 17.9405 25.7293 17.848 25.7351V25.7525H17.7266V25.7699H17.5359V25.7872H17.3106C17.0908 25.8485 16.767 25.822 16.4958 25.822C16.2764 25.822 16.0273 25.8362 15.8544 25.7872H15.6291V25.7699C15.5251 25.7641 15.421 25.7584 15.317 25.7525V25.7351H15.161C15.0067 25.6902 14.8077 25.6765 14.6583 25.631H14.5543V25.6136C14.4734 25.602 14.3925 25.5904 14.3116 25.5789V25.5615H14.2422V25.5441H14.1729V25.5268H14.1036V25.5094H14.0342V25.4921H13.9649V25.4747H13.9129V25.4573C13.8667 25.4516 13.8204 25.4457 13.7742 25.44V25.4226C13.7338 25.4169 13.6933 25.411 13.6529 25.4052V25.3879H13.6008V25.3705H13.5488V25.3532H13.4795V25.3358H13.4448V25.3184C13.4044 25.3127 13.3639 25.3068 13.3235 25.3011V25.2837H13.2888V25.2663C13.2541 25.2606 13.2195 25.2547 13.1848 25.249V25.2316C13.1501 25.2259 13.1155 25.22 13.0808 25.2143V25.1969H13.0461V25.1795C13.0114 25.1738 12.9768 25.1679 12.9421 25.1622V25.1448H12.9074V25.1274H12.8554V25.1101C12.8323 25.1043 12.8092 25.0984 12.7861 25.0927V25.0754H12.7341V25.058H12.6994V25.0406H12.6474V25.0233C12.6243 25.0175 12.6012 25.0116 12.5781 25.0059V24.9885H12.5261V24.9712C12.503 24.9654 12.4798 24.9595 12.4567 24.9538V24.9364H12.4047V24.9191C12.37 24.9074 12.3354 24.896 12.3007 24.8844V24.867H12.266V24.8496H12.2314V24.8323H12.1794C12.1736 24.8206 12.1678 24.8092 12.162 24.7975H12.11C12.1042 24.7859 12.0985 24.7745 12.0927 24.7628H12.058V24.7455H12.006C12.0002 24.7338 11.9944 24.7224 11.9887 24.7107C11.9656 24.705 11.9424 24.6991 11.9193 24.6934V24.676H11.8847V24.6586H11.85V24.6413H11.8153V24.6239H11.7806V24.6066H11.746C11.7402 24.5949 11.7344 24.5835 11.7286 24.5718H11.694V24.5545H11.6593V24.5371H11.6246V24.5197H11.59C11.5842 24.5081 11.5784 24.4966 11.5726 24.485C11.5495 24.4793 11.5264 24.4734 11.5033 24.4676C11.4975 24.456 11.4917 24.4446 11.4859 24.4329C11.4628 24.4272 11.4397 24.4213 11.4166 24.4156C11.4108 24.4039 11.405 24.3925 11.3993 24.3808C11.3762 24.3751 11.353 24.3692 11.3299 24.3635C11.3242 24.3518 11.3184 24.3404 11.3126 24.3287C11.2895 24.323 11.2664 24.3171 11.2433 24.3114C11.2375 24.2997 11.2317 24.2883 11.2259 24.2767H11.1912C11.1855 24.265 11.1797 24.2536 11.1739 24.2419C11.1508 24.2362 11.1277 24.2303 11.1046 24.2246C11.0988 24.2129 11.093 24.2015 11.0872 24.1898H11.0526C11.0468 24.1782 11.041 24.1667 11.0352 24.1551H11.0006V24.1378C10.9832 24.132 10.9659 24.1261 10.9486 24.1204C10.9428 24.1088 10.937 24.0973 10.9312 24.0857H10.8965C10.8908 24.074 10.885 24.0626 10.8792 24.0509H10.8445L10.8099 23.9988H10.7752C10.7694 23.9872 10.7636 23.9758 10.7579 23.9641H10.7232L10.6885 23.912H10.6539C10.6481 23.9004 10.6423 23.8889 10.6365 23.8773H10.6019L10.5672 23.8252H10.5325L10.4978 23.7731H10.4632L10.4285 23.721H10.3938C10.3765 23.6979 10.3592 23.6747 10.3418 23.6516H10.3072C10.2898 23.6285 10.2725 23.6052 10.2551 23.5821H10.2205C10.1974 23.5531 10.1742 23.5243 10.1511 23.4953H10.1165C10.0934 23.4663 10.0702 23.4375 10.0471 23.4085H10.0125C9.97778 23.3681 9.94311 23.3275 9.90844 23.287H9.87377C9.82176 23.2292 9.76976 23.1713 9.71775 23.1133H9.68308L9.5444 22.9571L9.21503 22.6445V22.6098C9.16303 22.5635 9.11102 22.5172 9.05902 22.4709V22.4362C9.01279 22.3957 8.96656 22.3552 8.92033 22.3146V22.2799C8.89144 22.2568 8.86255 22.2336 8.83366 22.2105V22.1757C8.80476 22.1527 8.77588 22.1294 8.74698 22.1063V22.0716L8.67764 22.0195V21.9848C8.66031 21.9731 8.64297 21.9617 8.62563 21.95V21.9153L8.55629 21.8632C8.55052 21.8458 8.54474 21.8285 8.53896 21.8111C8.5274 21.8054 8.51585 21.7995 8.50429 21.7938V21.759C8.49272 21.7533 8.48118 21.7474 8.46962 21.7417V21.7069C8.45805 21.7012 8.44651 21.6953 8.43495 21.6896C8.42917 21.6722 8.42339 21.6549 8.41761 21.6375C8.40028 21.6259 8.38294 21.6144 8.36561 21.6028V21.568C8.35404 21.5623 8.3425 21.5564 8.33094 21.5507V21.516C8.3136 21.5043 8.29626 21.4929 8.27893 21.4812V21.4465C8.26737 21.4408 8.25582 21.4349 8.24426 21.4291C8.23848 21.4118 8.2327 21.3944 8.22692 21.377H8.20959V21.3423C8.19803 21.3366 8.18648 21.3307 8.17492 21.325V21.2902C8.16336 21.2845 8.15181 21.2786 8.14025 21.2729V21.2381C8.12868 21.2324 8.11714 21.2265 8.10558 21.2208C8.0998 21.1977 8.09401 21.1744 8.08824 21.1513H8.07091C8.06513 21.134 8.05935 21.1166 8.05357 21.0992C8.04201 21.0935 8.03046 21.0876 8.0189 21.0819V21.0472H8.00157V21.0124C7.99 21.0067 7.97846 21.0008 7.9669 20.9951C7.96112 20.972 7.95533 20.9487 7.94956 20.9256C7.938 20.9199 7.92645 20.914 7.91489 20.9082C7.90912 20.8852 7.90333 20.8619 7.89755 20.8388C7.88599 20.8331 7.87445 20.8272 7.86288 20.8214C7.85711 20.7983 7.85132 20.7751 7.84555 20.752C7.83399 20.7463 7.82244 20.7404 7.81088 20.7346V20.6999H7.79354V20.6652H7.77621V20.6304H7.75887V20.5957C7.74731 20.59 7.73576 20.5841 7.7242 20.5784V20.5436H7.70687V20.5089H7.68953V20.4742H7.6722V20.4394H7.65486V20.4047H7.63753C7.63175 20.3816 7.62596 20.3584 7.62019 20.3353C7.60863 20.3295 7.59708 20.3236 7.58552 20.3179C7.57975 20.2889 7.57396 20.2601 7.56818 20.2311H7.55085V20.1964H7.53351V20.1616H7.51618V20.1269H7.49884V20.0922H7.48151V20.0575H7.46417V20.0227H7.44684C7.44107 19.9996 7.43528 19.9764 7.4295 19.9533H7.41217V19.9186H7.39483V19.8665H7.3775C7.37172 19.8434 7.36593 19.8201 7.36016 19.797H7.34283V19.7449H7.32549C7.31972 19.7218 7.31393 19.6986 7.30816 19.6755H7.29082V19.6234H7.27349V19.5887H7.25615V19.5366H7.23882C7.23304 19.5135 7.22725 19.4902 7.22148 19.4671H7.20414V19.415H7.18681V19.3803H7.16947C7.1637 19.3456 7.15792 19.3109 7.15214 19.2761H7.1348V19.2414H7.11747V19.172H7.10013V19.1372H7.0828C7.07702 19.1025 7.07124 19.0678 7.06546 19.0331H7.04813V18.9983H7.03079V18.9289H7.01346V18.8768H6.99612V18.8247H6.97879V18.7726H6.96145V18.7205H6.94412V18.6684H6.92678V18.599H6.90945V18.5469H6.89211C6.88055 18.4832 6.869 18.4195 6.85744 18.3559H6.84011V18.2864H6.82277C6.817 18.2401 6.81121 18.1939 6.80543 18.1475H6.7881V18.0607H6.77076V18.0086H6.75343V17.9218C6.71293 17.7926 6.68846 17.6192 6.64942 17.4878V17.3662C6.60793 17.2266 6.60364 17.0235 6.56274 16.8801V16.6891H6.54541V16.4633H6.52807V16.2897H6.51074V9.30982L6.61475 8.85838H6.63208V8.82366H6.64942C6.6552 8.78893 6.66097 8.75421 6.66675 8.71948H6.68409L6.71876 8.6153H6.73609V8.58058H6.75343V8.54585H6.77076V8.51113H6.7881V8.4764H6.80543V8.44167L6.84011 8.42431V8.38959H6.85744L6.87478 8.3375L6.90945 8.32013V8.28541L6.96145 8.25068V8.21596L7.03079 8.16387V8.12914L7.10013 8.07705L7.22148 7.93815H7.25615L7.32549 7.85134H7.36016L7.39483 7.79925H7.4295L7.44684 7.76452H7.48151L7.49884 7.72979L7.56818 7.71243L7.58552 7.67771L7.65486 7.66034V7.64298H7.68953V7.62562L7.79354 7.59089V7.57353L8.24426 7.43463C8.32124 7.41105 8.36545 7.45122 8.41761 7.3999ZM56.0375 18.3906C56.9526 18.3771 57.6034 18.563 58.1524 18.9115C58.1754 18.9172 58.1987 18.9231 58.2217 18.9289C58.2275 18.9405 58.2333 18.952 58.2391 18.9636C58.2621 18.9693 58.2854 18.9752 58.3084 18.981C58.3141 18.9926 58.32 19.0041 58.3257 19.0157H58.3604C58.372 19.0331 58.3835 19.0504 58.3951 19.0678H58.4298C58.4355 19.0794 58.4414 19.0909 58.4471 19.1025H58.4818C58.4934 19.1199 58.5048 19.1372 58.5164 19.1546H58.5511C58.5684 19.1777 58.5858 19.201 58.6031 19.224H58.6378C58.6608 19.253 58.6841 19.2819 58.7071 19.3109H58.7418C58.8054 19.3803 58.869 19.4498 58.9325 19.5192C58.9788 19.5597 59.025 19.6002 59.0712 19.6408V19.6755C59.1001 19.6986 59.1289 19.7218 59.1578 19.7449V19.7797C59.1809 19.797 59.2041 19.8144 59.2272 19.8317V19.8665C59.2445 19.8781 59.2618 19.8896 59.2792 19.9012V19.9359C59.2908 19.9417 59.3022 19.9476 59.3139 19.9533V19.988C59.3312 19.9996 59.3485 20.0111 59.3659 20.0227V20.0575C59.3775 20.0632 59.3889 20.0691 59.4005 20.0748C59.4062 20.0979 59.4121 20.1212 59.4179 20.1443C59.4295 20.15 59.4409 20.1559 59.4525 20.1616C59.4583 20.1847 59.4641 20.208 59.4699 20.2311C59.4815 20.2368 59.4929 20.2427 59.5045 20.2485V20.2832H59.5219V20.3179H59.5392V20.3526H59.5565V20.3874C59.5682 20.3931 59.5796 20.399 59.5912 20.4047V20.4394H59.6086V20.4742H59.6259V20.5263H59.6432V20.561H59.6606C59.6722 20.5957 59.6836 20.6304 59.6952 20.6652H59.7126V20.7173H59.7299V20.752H59.7472C59.753 20.7867 59.7589 20.8214 59.7646 20.8562H59.7819V20.9082H59.7992V20.9603H59.8166V21.0124H59.8339V21.0645H59.8512C59.857 21.105 59.8629 21.1456 59.8686 21.1861H59.8859V21.2729H59.9033V21.3423H59.9206V21.4291H59.9379V21.5333H59.9553V21.6722H59.9726V21.8632H59.9899C60.0137 21.9486 59.9903 22.3041 59.9726 22.3667C59.9669 22.4709 59.9611 22.5751 59.9553 22.6793H59.9379V22.7834H59.9206V22.8703H59.9033V22.9397H59.8859V23.0265H59.8686C59.8629 23.067 59.857 23.1076 59.8512 23.1481H59.8339V23.2002H59.8166V23.2522H59.7992V23.3043H59.7819V23.3564H59.7646C59.7589 23.3911 59.753 23.4259 59.7472 23.4606H59.7299V23.4953H59.7126V23.5474H59.6952C59.6836 23.5821 59.6722 23.6169 59.6606 23.6516H59.6432V23.6863H59.6259V23.7384H59.6086V23.7731H59.5912V23.8079C59.5796 23.8136 59.5682 23.8195 59.5565 23.8252V23.8599H59.5392V23.8947H59.5219V23.9294H59.5045V23.9641C59.4929 23.9699 59.4815 23.9758 59.4699 23.9815C59.4641 24.0046 59.4583 24.0278 59.4525 24.0509C59.4409 24.0567 59.4295 24.0626 59.4179 24.0683C59.4121 24.0914 59.4062 24.1147 59.4005 24.1378C59.3889 24.1435 59.3775 24.1494 59.3659 24.1551V24.1898C59.3485 24.2015 59.3312 24.2129 59.3139 24.2246V24.2593C59.3022 24.265 59.2908 24.2709 59.2792 24.2767V24.3114C59.2676 24.3171 59.2561 24.323 59.2445 24.3287C59.2388 24.3461 59.2329 24.3635 59.2272 24.3808C59.2041 24.3982 59.1809 24.4156 59.1578 24.4329V24.4676C59.1289 24.4907 59.1001 24.514 59.0712 24.5371V24.5718C59.0134 24.6239 58.9556 24.676 58.8978 24.7281C58.8458 24.7859 58.7938 24.8438 58.7418 24.9017H58.7071C58.6841 24.9307 58.6608 24.9595 58.6378 24.9885H58.6031C58.5858 25.0116 58.5684 25.0349 58.5511 25.058H58.5164C58.5048 25.0753 58.4934 25.0927 58.4818 25.1101H58.4471C58.4414 25.1217 58.4355 25.1332 58.4298 25.1448H58.3951C58.3835 25.1622 58.372 25.1795 58.3604 25.1969H58.3257C58.32 25.2085 58.3141 25.22 58.3084 25.2316C58.2854 25.2373 58.2621 25.2432 58.2391 25.249C58.2333 25.2606 58.2275 25.2721 58.2217 25.2837C58.1987 25.2894 58.1754 25.2953 58.1524 25.3011C58.1467 25.3127 58.1408 25.3242 58.1351 25.3358H58.1004V25.3532H58.0657V25.3705H58.031V25.3879H57.9964C57.9907 25.3995 57.9848 25.411 57.979 25.4226H57.9444V25.44H57.9097V25.4573H57.8577V25.4747H57.823V25.4921C57.7884 25.5037 57.7537 25.5152 57.719 25.5268V25.5441H57.667V25.5615H57.6323V25.5789C57.5977 25.5846 57.563 25.5905 57.5283 25.5962V25.6136H57.4763V25.631H57.4243V25.6483H57.3723V25.6657H57.3203V25.6831C57.2799 25.6888 57.2393 25.6947 57.199 25.7004V25.7178H57.1123V25.7351H57.0429V25.7525H56.9563V25.7699H56.8522V25.7872H56.7136V25.8046H56.5402V25.822C56.4534 25.8463 56.0843 25.8227 56.0202 25.8046H55.8468V25.7872H55.7081V25.7699H55.6041V25.7525H55.5174C55.321 25.6947 55.1246 25.6368 54.928 25.5789V25.5615H54.8934V25.5441H54.8414V25.5268C54.8067 25.5152 54.772 25.5037 54.7374 25.4921V25.4747H54.7027V25.4573H54.6507V25.44H54.616V25.4226H54.5813C54.5756 25.411 54.5697 25.3995 54.564 25.3879H54.5293V25.3705H54.4947V25.3532H54.46V25.3358H54.4253C54.4196 25.3242 54.4137 25.3127 54.408 25.3011C54.3849 25.2953 54.3617 25.2894 54.3386 25.2837C54.3329 25.2721 54.327 25.2606 54.3213 25.249C54.2982 25.2432 54.275 25.2373 54.252 25.2316C54.2462 25.22 54.2404 25.2085 54.2346 25.1969H54.2C54.1883 25.1795 54.1769 25.1622 54.1653 25.1448H54.1306C54.1249 25.1332 54.119 25.1217 54.1133 25.1101H54.0786C54.0729 25.0984 54.067 25.087 54.0613 25.0754C54.0439 25.0696 54.0266 25.0637 54.0093 25.058C53.9919 25.0349 53.9746 25.0116 53.9573 24.9885H53.9226C53.8995 24.9595 53.8763 24.9307 53.8533 24.9017H53.8186C53.7666 24.8439 53.7146 24.786 53.6626 24.7281C53.6048 24.676 53.5471 24.6239 53.4892 24.5718V24.5371C53.4603 24.514 53.4315 24.4907 53.4025 24.4676V24.4329C53.3795 24.4156 53.3563 24.3982 53.3332 24.3808V24.3461C53.3159 24.3345 53.2985 24.323 53.2812 24.3114V24.2767C53.2696 24.2709 53.2581 24.265 53.2465 24.2593V24.2246C53.2292 24.2129 53.2119 24.2015 53.1945 24.1898V24.1551C53.1829 24.1494 53.1715 24.1435 53.1598 24.1378C53.1541 24.1147 53.1482 24.0914 53.1425 24.0683C53.1309 24.0626 53.1195 24.0567 53.1078 24.0509C53.1021 24.0278 53.0962 24.0046 53.0905 23.9815C53.0789 23.9758 53.0674 23.9699 53.0558 23.9641V23.9294H53.0385V23.8947H53.0212V23.8599H53.0038V23.8252C52.9922 23.8195 52.9808 23.8136 52.9692 23.8079V23.7731H52.9518V23.7384H52.9345V23.6863H52.9172V23.6516H52.8998C52.8882 23.6169 52.8768 23.5821 52.8651 23.5474H52.8478C52.7901 23.3738 52.7323 23.2002 52.6745 23.0265V22.9397H52.6571V22.8703H52.6398V22.7834H52.6225V22.6793H52.6051V22.5404H52.5878V22.3494H52.5704C52.547 22.2653 52.5706 21.9243 52.5878 21.8632V21.6722H52.6051C52.6108 21.5911 52.6166 21.5101 52.6225 21.4291H52.6398V21.3423H52.6571V21.2729H52.6745V21.1861H52.6918C52.6975 21.1456 52.7034 21.105 52.7091 21.0645H52.7265V21.0124H52.7438V20.9603H52.7611V20.9082H52.7785V20.8562H52.7958C52.8015 20.8214 52.8074 20.7867 52.8131 20.752H52.8305V20.7173H52.8478V20.6652C53.25 19.7614 53.9396 19.0719 54.8414 18.6684H54.8934V18.6511H54.928V18.6337C54.9627 18.628 54.9974 18.6221 55.0321 18.6163V18.599H55.0841V18.5816H55.1361V18.5643H55.1881V18.5469H55.2401V18.5295C55.3094 18.5179 55.3788 18.5063 55.4481 18.4948V18.4774C55.5001 18.4717 55.5521 18.4658 55.6041 18.4601V18.4427H55.7081V18.4254H55.8468V18.408C55.9116 18.3896 55.9955 18.4276 56.0375 18.3906ZM55.6214 20.6478V20.6652H55.5521V20.6825C55.4361 20.7112 55.4486 20.7945 55.3788 20.8562V22.8703C55.3788 23.1637 55.3947 23.5222 55.1707 23.5821C55.1378 23.6205 55.1347 23.5983 55.0841 23.6169V23.6342C55.009 23.6285 54.9339 23.6227 54.8587 23.6169V23.5995H54.8067C54.801 23.5879 54.7951 23.5764 54.7894 23.5648H54.7547C54.7374 23.5417 54.72 23.5184 54.7027 23.4953C54.6737 23.4896 54.645 23.4837 54.616 23.478V23.4606H54.4427C54.4116 23.4946 54.4085 23.4752 54.3733 23.4953V23.5127H54.3386C54.2927 23.5443 54.1987 23.7134 54.2346 23.8252H54.252C54.2577 23.8542 54.2636 23.883 54.2693 23.912C54.3097 23.9468 54.3501 23.9815 54.3906 24.0162C54.3964 24.0278 54.4023 24.0393 54.408 24.0509H54.4427C54.4484 24.0626 54.4543 24.074 54.46 24.0857H54.4947C54.5004 24.0973 54.5063 24.1088 54.512 24.1204H54.5467V24.1378C54.5697 24.1435 54.5929 24.1494 54.616 24.1551V24.1725C54.6507 24.1782 54.6853 24.1841 54.72 24.1898V24.2072H54.7894C55.0158 24.281 55.2454 24.227 55.4134 24.1378C55.4365 24.132 55.4597 24.1261 55.4828 24.1204C55.4885 24.1088 55.4944 24.0973 55.5001 24.0857H55.5348C55.5405 24.074 55.5464 24.0626 55.5521 24.0509H55.5868C55.6041 24.0278 55.6214 24.0046 55.6388 23.9815C55.6851 23.941 55.7313 23.9005 55.7775 23.8599V23.8252C55.7891 23.8195 55.8005 23.8136 55.8121 23.8079V23.7731C55.8237 23.7674 55.8352 23.7615 55.8468 23.7558V23.721H55.8641C55.8699 23.6979 55.8758 23.6747 55.8815 23.6516H55.8988C55.9045 23.6169 55.9104 23.5821 55.9161 23.5474H55.9335C55.9794 23.4167 55.9682 23.2 55.9682 23.0265V20.8909C55.9558 20.8523 55.9267 20.8178 55.9161 20.7693C55.8104 20.7077 55.8033 20.6499 55.6214 20.6478ZM57.0083 21.4986C57.0532 21.4861 57.0644 21.4715 57.0949 21.4465V21.4291H57.1296C57.1353 21.4175 57.1412 21.406 57.1469 21.3944H57.1816V21.377H57.2163V21.3597H57.2683V21.3423H57.3203V21.325C57.4359 21.3307 57.5515 21.3365 57.667 21.3423V21.3597C57.7017 21.3713 57.7363 21.3828 57.771 21.3944V21.4118H57.8057C57.8114 21.4234 57.8173 21.4349 57.823 21.4465H57.8577C57.875 21.4696 57.8924 21.4929 57.9097 21.516H57.9444C57.9501 21.5276 57.956 21.539 57.9617 21.5507C58.013 21.5776 58.1279 21.5675 58.2044 21.568C58.2351 21.5337 58.2385 21.5535 58.2737 21.5333V21.516H58.3084C58.32 21.4986 58.3315 21.4812 58.3431 21.4639H58.3604V21.4291C58.372 21.4234 58.3835 21.4175 58.3951 21.4118V21.3597H58.4124C58.4597 21.2138 58.3514 21.0388 58.2911 20.9951H58.2564C58.2391 20.972 58.2217 20.9487 58.2044 20.9256H58.1697C58.164 20.914 58.1581 20.9025 58.1524 20.8909C58.1351 20.8852 58.1177 20.8793 58.1004 20.8735V20.8562C58.0773 20.8504 58.0541 20.8445 58.031 20.8388V20.8214C58.008 20.8157 57.9848 20.8098 57.9617 20.8041V20.7867H57.9097V20.7693H57.875V20.752C57.7412 20.6995 57.558 20.6987 57.3723 20.6999C57.2451 20.7008 57.1485 20.7339 57.0603 20.7693C57.0313 20.7751 57.0025 20.781 56.9736 20.7867C56.9495 20.7992 56.834 20.885 56.8002 20.8735V20.8562C56.7713 20.8157 56.7425 20.7751 56.7136 20.7346H56.6789C56.6732 20.723 56.6673 20.7115 56.6616 20.6999C56.6212 20.6942 56.5806 20.6883 56.5402 20.6825V20.6652H56.4709V20.6825C56.4305 20.6883 56.3899 20.6942 56.3495 20.6999C56.3246 20.7381 56.3064 20.7252 56.2802 20.752C56.2512 20.8041 56.2223 20.8562 56.1935 20.9082V23.0439C56.2058 23.0824 56.2349 23.117 56.2455 23.1654C56.3183 23.2092 56.4189 23.3373 56.5749 23.287C56.6134 23.2745 56.648 23.2456 56.6962 23.2349C56.7136 23.2118 56.7309 23.1885 56.7482 23.1654H56.7656V23.1307H56.7829V23.096H56.8002V23.0439H56.8176V21.8806C56.8465 21.7995 56.8754 21.7185 56.9043 21.6375C56.9159 21.6318 56.9273 21.6259 56.9389 21.6201V21.5854H56.9563C56.9812 21.5548 56.9958 21.5436 57.0083 21.4986Z" fill="#CD5C08"/>
</svg>
